<svg width="402" height="134" viewBox="0 0 402 134" fill="none" xmlns="http://www.w3.org/2000/svg">
<path d="M128.591 14.6687H118.863V0.167969H128.485V2.58643H121.827V5.99657H128.071V8.39481H121.827V12.2552H128.586V14.6687H128.591Z" fill="#020025"/>
<path d="M152.463 5.70372L155.552 6.34627C156.789 6.60937 157.658 7.04956 158.157 7.66682C158.657 8.28409 158.91 9.20492 158.91 10.4142V11.1984C158.91 13.6219 157.496 14.8362 154.664 14.8362H152.685C151.049 14.8362 149.696 14.735 148.626 14.5276V12.357H154.149C155.345 12.357 155.941 11.8663 155.941 10.8898V10.3332C155.941 9.87784 155.79 9.52874 155.487 9.29094C155.184 9.04808 154.694 8.86088 154.023 8.72427L151.342 8.16772C150.131 7.9198 149.267 7.50491 148.747 6.92812C148.227 6.35133 147.965 5.5165 147.965 4.4287V3.62423C147.965 1.21588 149.378 0.0117188 152.21 0.0117188H153.982C155.643 0.0117188 156.996 0.112902 158.041 0.320344V2.4909H153.134C152.367 2.4909 151.807 2.59208 151.463 2.79952C151.12 3.00696 150.948 3.37632 150.948 3.91263V4.2415C150.948 4.65638 151.065 4.97513 151.297 5.20281C151.539 5.42543 151.928 5.59241 152.463 5.70372Z" fill="#020025"/>
<path d="M183.682 12.3582H188.75V14.5287C187.68 14.7362 186.393 14.8374 184.898 14.8374H183.374C181.587 14.8374 180.294 14.4478 179.492 13.6686C178.689 12.8894 178.285 11.6195 178.285 9.85876V5.00665C178.285 3.23075 178.689 1.95068 179.492 1.17657C180.294 0.397397 181.592 0.0078125 183.374 0.0078125H184.797C186.297 0.0078125 187.579 0.109012 188.649 0.316453V2.48699H183.682C182.844 2.48699 182.228 2.68431 181.839 3.0739C181.445 3.46855 181.254 4.12628 181.254 5.04712V9.81829C181.254 10.7391 181.45 11.3969 181.839 11.7814C182.228 12.1609 182.844 12.3582 183.682 12.3582Z" fill="#020025"/>
<path d="M215.561 14.8296H213.214C211.427 14.8296 210.134 14.44 209.332 13.6608C208.529 12.8816 208.125 11.6117 208.125 9.85095V4.99884C208.125 3.22294 208.529 1.94288 209.332 1.16877C210.134 0.3896 211.432 0 213.214 0H215.561C217.348 0 218.641 0.3896 219.443 1.16877C220.246 1.94794 220.65 3.22294 220.65 4.99884V9.85095C220.65 11.6117 220.246 12.8816 219.443 13.6608C218.646 14.445 217.348 14.8296 215.561 14.8296ZM213.522 12.3554H215.253C216.091 12.3554 216.707 12.1632 217.096 11.7786C217.49 11.3941 217.681 10.7414 217.681 9.81555V5.04438C217.681 4.12354 217.485 3.4658 217.096 3.07115C216.707 2.67651 216.091 2.48424 215.253 2.48424H213.522C212.684 2.48424 212.068 2.68157 211.679 3.07115C211.29 3.4658 211.093 4.12354 211.093 5.04438V9.81555C211.093 10.7364 211.29 11.3941 211.679 11.7786C212.068 12.1581 212.684 12.3554 213.522 12.3554Z" fill="#020025"/>
<path d="M240.027 0.167969H242.996V12.1895H249.715V14.6687H240.027V0.167969Z" fill="#020025"/>
<path d="M280.067 14.6687L279.057 11.7746H273.161L272.151 14.6687H269.082L274.378 0.167969H277.841L283.136 14.6687H280.067ZM276.114 3.3909L274.034 9.3207H278.199L276.114 3.3909Z" fill="#020025"/>
<path d="M52.9805 28.9297H31.0861C13.0739 29.5621 0.00390625 43.3393 0.00390625 61.7004C0.00390625 79.8642 13.0941 93.5301 31.1669 94.203H52.9856C53.5661 94.203 54.0407 93.7274 54.0407 93.1455V29.9871C54.0356 29.4053 53.5611 28.9297 52.9805 28.9297Z" fill="#85ECD2"/>
<path d="M349.895 61.6154C349.895 80.5381 336.23 94.2647 317.405 94.2647C298.529 94.2647 284.828 80.533 284.828 61.6154C284.828 42.6471 298.529 28.875 317.405 28.875C336.23 28.875 349.895 42.642 349.895 61.6154Z" fill="#85ECD2"/>
<path d="M86.7231 30.1992H61.0273V92.9377H106.144V49.6583C106.139 38.9118 97.4456 30.1992 86.7231 30.1992Z" fill="#85ECD2"/>
<path d="M382.87 30.1992H356.887V90.165C356.887 91.693 358.124 92.9326 359.648 92.9326H401.998V49.3699C402.003 38.7853 393.436 30.1992 382.87 30.1992Z" fill="#85ECD2"/>
<path d="M159.727 92.9124L221.115 92.9377L198.14 30.9278C197.978 30.4927 197.559 30.1992 197.095 30.1992H182.419C181.955 30.1992 181.541 30.4876 181.38 30.9227L158.688 91.3996C158.41 92.1281 158.945 92.9124 159.727 92.9124Z" fill="#85ECD2"/>
<path d="M153.272 92.9377H114.178C113.602 92.9377 113.133 92.4672 113.133 91.8904V31.2465C113.133 30.6698 113.602 30.1992 114.178 30.1992H153.272C153.847 30.1992 154.317 30.6698 154.317 31.2465V91.8904C154.322 92.4672 153.852 92.9377 153.272 92.9377Z" fill="#85ECD2"/>
<path d="M277.833 31.2578H225.301V92.9388H277.833V31.2578Z" fill="#85ECD2"/>
<path d="M349.899 61.6154C349.899 80.5381 336.234 94.2647 317.409 94.2647C298.533 94.2647 284.832 80.533 284.832 61.6154C284.832 42.6471 298.533 28.875 317.409 28.875C336.234 28.875 349.899 42.642 349.899 61.6154ZM335.421 61.5243C335.421 48.4504 326.081 42.5004 317.409 42.5004C308.69 42.5004 299.31 48.4555 299.31 61.5243C299.31 74.5324 308.69 80.4571 317.409 80.4571C326.081 80.4622 335.421 74.5375 335.421 61.5243Z" fill="#020025"/>
<path d="M93.7817 67.541L105.731 91.4069C105.898 91.7358 105.877 92.1254 105.686 92.434C105.494 92.7427 105.155 92.9349 104.787 92.9349H91.7977C91.3939 92.9349 91.0254 92.7022 90.8487 92.3328L79.9242 69.5699H74.9769V91.8724C74.9769 92.4543 74.5074 92.9299 73.9218 92.9299H62.0785C61.498 92.9299 61.0234 92.4543 61.0234 91.8724V58.5907C61.0234 58.0088 61.498 57.5332 62.0785 57.5332H83.1854C88.6325 57.5332 92.0148 54.6189 92.0148 49.9237C92.0148 45.0867 88.794 42.3141 83.1854 42.3141H76.0269C75.4464 42.3141 74.9718 41.8385 74.9718 41.2566V31.2489C74.9718 30.667 75.4464 30.1914 76.0269 30.1914H85.8307C97.785 30.1914 106.14 38.2664 106.14 49.8326C106.14 58.2871 101.637 64.738 93.7817 67.541Z" fill="#020025"/>
<path d="M389.641 67.541L401.59 91.4069C401.757 91.7358 401.737 92.1254 401.545 92.434C401.353 92.7427 401.015 92.9349 400.646 92.9349H387.657C387.253 92.9349 386.885 92.7022 386.708 92.3328L375.784 69.5699H370.836V91.8724C370.836 92.4543 370.367 92.9299 369.781 92.9299H357.938C357.357 92.9299 356.883 92.4543 356.883 91.8724V58.5907C356.883 58.0088 357.357 57.5332 357.938 57.5332H379.045C384.492 57.5332 387.874 54.6189 387.874 49.9237C387.874 45.0867 384.653 42.3141 379.045 42.3141H371.886C371.306 42.3141 370.831 41.8385 370.831 41.2566V31.2489C370.831 30.667 371.306 30.1914 371.886 30.1914H381.69C393.644 30.1914 401.999 38.2664 401.999 49.8326C402.004 58.2871 397.496 64.738 389.641 67.541Z" fill="#020025"/>
<path d="M211.176 66.0259C211.292 66.3497 211.246 66.714 211.049 66.9974C210.852 67.2807 210.529 67.4527 210.186 67.4527H197.818C197.368 67.4527 196.97 67.1694 196.818 66.7393L189.559 45.7675L173.031 92.2344C172.884 92.6544 172.486 92.9326 172.036 92.9326H159.658C159.31 92.9326 158.986 92.7657 158.79 92.4773C158.593 92.1939 158.547 91.8296 158.668 91.5058L181.446 30.8823C181.603 30.4674 181.996 30.1992 182.436 30.1992H197.131C197.57 30.1992 197.964 30.4724 198.121 30.8873L211.176 66.0259Z" fill="#020025"/>
<path d="M54.0367 29.9871V41.4926C54.0367 42.0744 53.5622 42.55 52.9816 42.55H31.1226C22.8384 43.1066 14.4785 49.2438 14.4785 61.7004C14.4785 73.6055 23.1463 79.6517 31.1983 80.2235H52.9816C53.5622 80.2235 54.0367 80.699 54.0367 81.2809V93.1455C54.0367 93.7274 53.5622 94.203 52.9816 94.203H31.163C13.0902 93.5351 0 79.8642 0 61.7004C0 43.3393 13.075 29.5571 31.0822 28.9297H52.9766C53.5622 28.9297 54.0367 29.4053 54.0367 29.9871Z" fill="#020025"/>
<path d="M113.133 42.327V31.2567C113.133 30.6748 113.607 30.1992 114.188 30.1992H153.267C153.847 30.1992 154.322 30.6748 154.322 31.2567V42.327C154.322 42.9088 153.847 43.3844 153.267 43.3844H114.188C113.607 43.3844 113.133 42.9139 113.133 42.327ZM113.133 66.5723V56.3875C113.133 55.8056 113.638 55.33 114.254 55.33H153.287C153.908 55.33 154.408 55.8056 154.408 56.3875V66.5723C154.408 67.1542 153.903 67.6298 153.287 67.6298H114.254C113.638 67.6298 113.133 67.1542 113.133 66.5723ZM154.408 80.7189V91.8752C154.408 92.457 153.933 92.9326 153.352 92.9326H114.188C113.607 92.9326 113.133 92.457 113.133 91.8752V80.7189C113.133 80.137 113.607 79.6614 114.188 79.6614H153.352C153.938 79.6614 154.408 80.137 154.408 80.7189Z" fill="#020025"/>
<path d="M276.782 30.1992H226.36C225.779 30.1992 225.305 30.6748 225.305 31.2567V42.499C225.305 43.0808 225.779 43.5564 226.36 43.5564H244.554V91.4704C244.554 92.2799 245.028 92.9326 245.609 92.9326H257.447C258.028 92.9326 258.502 92.2749 258.502 91.4704V43.5564H276.782C277.362 43.5564 277.837 43.0808 277.837 42.499V31.2567C277.837 30.6748 277.362 30.1992 276.782 30.1992Z" fill="#020025"/>
<path d="M203.793 114.297L208.2 125.701L212.582 114.297H215.525L207.953 133.999H205.015L207.11 128.868H206.458L200.875 114.297H203.793Z" fill="#020025"/>
<path d="M215.484 123.934V119.269C215.484 115.834 217.317 114.113 220.982 114.113H223.486C227.151 114.113 228.983 115.834 228.983 119.269V123.934C228.983 127.354 227.151 129.064 223.486 129.064H220.982C217.317 129.064 215.484 127.354 215.484 123.934ZM226.126 123.797V119.375C226.126 118.409 225.894 117.69 225.429 117.22C224.965 116.749 224.228 116.512 223.213 116.512H221.255C220.24 116.512 219.498 116.749 219.033 117.22C218.569 117.69 218.337 118.409 218.337 119.375V123.797C218.337 124.764 218.569 125.482 219.033 125.953C219.498 126.423 220.235 126.661 221.25 126.661H223.208C224.223 126.661 224.965 126.423 225.424 125.953C225.894 125.482 226.126 124.759 226.126 123.797Z" fill="#020025"/>
<path d="M233.248 114.297V123.763C233.248 125.656 234.217 126.602 236.161 126.602H237.17C238.261 126.602 239.286 126.541 240.245 126.409V114.297H243.102V128.403C241.068 128.838 238.937 129.056 236.706 129.056H235.752C233.975 129.056 232.637 128.626 231.739 127.76C230.84 126.895 230.391 125.645 230.391 124.011V114.297H233.248Z" fill="#020025"/>
<path d="M170.433 133.726H158.918V108.332H170.181C172.563 108.332 174.371 108.873 175.613 109.961C176.849 111.044 177.47 112.577 177.47 114.555V115.967C177.47 117.05 177.223 118.001 176.728 118.805C176.234 119.615 175.567 120.187 174.724 120.526C176.769 121.224 177.793 122.888 177.793 125.519V127.472C177.793 129.451 177.173 130.989 175.936 132.082C174.694 133.174 172.861 133.726 170.433 133.726ZM162.891 118.967H169.893C171.024 118.967 171.912 118.694 172.563 118.153C173.215 117.611 173.538 116.832 173.538 115.82V114.879C173.538 113.842 173.215 113.058 172.563 112.526C171.912 111.995 171.024 111.732 169.893 111.732H162.891V118.967ZM170.14 122.261H162.886V130.361H170.14C171.271 130.361 172.165 130.083 172.831 129.532C173.492 128.975 173.826 128.181 173.826 127.143V125.479C173.826 124.442 173.497 123.647 172.836 123.091C172.17 122.534 171.271 122.261 170.14 122.261Z" fill="#020025"/>
<path d="M191.891 133.224V128.24H186.918V124.218H191.891V119.234H195.904V124.218H200.871V128.24H195.904V133.224H191.891Z" fill="#020025"/>
<path d="M179.457 128.24V124.132V123.444V121.668L195.904 106.039V111.579L183.47 123.398V128.24H179.457Z" fill="#020025"/>
</svg>
