<svg width="203" height="32" viewBox="0 0 203 32" fill="none" xmlns="http://www.w3.org/2000/svg">
<path d="M26.68 8.6C28.4133 8.6 29.96 8.96 31.32 9.68C32.7067 10.4 33.7867 11.4667 34.56 12.88C35.36 14.2933 35.76 16 35.76 18V31H31.24V18.68C31.24 16.7067 30.7467 15.2 29.76 14.16C28.7733 13.0933 27.4267 12.56 25.72 12.56C24.0133 12.56 22.6533 13.0933 21.64 14.16C20.6533 15.2 20.16 16.7067 20.16 18.68V31H15.64V18.68C15.64 16.7067 15.1467 15.2 14.16 14.16C13.1733 13.0933 11.8267 12.56 10.12 12.56C8.41333 12.56 7.05333 13.0933 6.04 14.16C5.05333 15.2 4.56 16.7067 4.56 18.68V31H1.19209e-07V8.96H4.56V11.48C5.30667 10.5733 6.25333 9.86667 7.4 9.36C8.54667 8.85333 9.77333 8.6 11.08 8.6C12.84 8.6 14.4133 8.97333 15.8 9.72C17.1867 10.4667 18.2533 11.5467 19 12.96C19.6667 11.6267 20.7067 10.5733 22.12 9.8C23.5333 9 25.0533 8.6 26.68 8.6ZM59.7625 19.44C59.7625 20.2667 59.7092 21.0133 59.6025 21.68H42.7625C42.8958 23.44 43.5492 24.8533 44.7225 25.92C45.8958 26.9867 47.3358 27.52 49.0425 27.52C51.4958 27.52 53.2292 26.4933 54.2425 24.44H59.1625C58.4958 26.4667 57.2825 28.1333 55.5225 29.44C53.7892 30.72 51.6292 31.36 49.0425 31.36C46.9358 31.36 45.0425 30.8933 43.3625 29.96C41.7092 29 40.4025 27.6667 39.4425 25.96C38.5092 24.2267 38.0425 22.2267 38.0425 19.96C38.0425 17.6933 38.4958 15.7067 39.4025 14C40.3358 12.2667 41.6292 10.9333 43.2825 10C44.9625 9.06667 46.8825 8.6 49.0425 8.6C51.1225 8.6 52.9758 9.05333 54.6025 9.96C56.2292 10.8667 57.4958 12.1467 58.4025 13.8C59.3092 15.4267 59.7625 17.3067 59.7625 19.44ZM55.0025 18C54.9758 16.32 54.3758 14.9733 53.2025 13.96C52.0292 12.9467 50.5758 12.44 48.8425 12.44C47.2692 12.44 45.9225 12.9467 44.8025 13.96C43.6825 14.9467 43.0158 16.2933 42.8025 18H55.0025ZM88.93 8.6C90.6633 8.6 92.21 8.96 93.57 9.68C94.9567 10.4 96.0367 11.4667 96.81 12.88C97.61 14.2933 98.01 16 98.01 18V31H93.49V18.68C93.49 16.7067 92.9967 15.2 92.01 14.16C91.0233 13.0933 89.6767 12.56 87.97 12.56C86.2633 12.56 84.9033 13.0933 83.89 14.16C82.9033 15.2 82.41 16.7067 82.41 18.68V31H77.89V18.68C77.89 16.7067 77.3967 15.2 76.41 14.16C75.4233 13.0933 74.0767 12.56 72.37 12.56C70.6633 12.56 69.3033 13.0933 68.29 14.16C67.3033 15.2 66.81 16.7067 66.81 18.68V31H62.25V8.96H66.81V11.48C67.5567 10.5733 68.5033 9.86667 69.65 9.36C70.7967 8.85333 72.0233 8.6 73.33 8.6C75.09 8.6 76.6633 8.97333 78.05 9.72C79.4367 10.4667 80.5033 11.5467 81.25 12.96C81.9167 11.6267 82.9567 10.5733 84.37 9.8C85.7833 9 87.3033 8.6 88.93 8.6ZM106.373 12.24C107.146 11.1733 108.199 10.3067 109.533 9.64C110.893 8.94667 112.399 8.6 114.053 8.6C115.999 8.6 117.759 9.06667 119.333 10C120.906 10.9333 122.146 12.2667 123.053 14C123.959 15.7067 124.413 17.6667 124.413 19.88C124.413 22.0933 123.959 24.08 123.053 25.84C122.146 27.5733 120.893 28.9333 119.293 29.92C117.719 30.88 115.973 31.36 114.053 31.36C112.346 31.36 110.826 31.0267 109.493 30.36C108.186 29.6933 107.146 28.84 106.373 27.8V31H101.813V1.4H106.373V12.24ZM119.773 19.88C119.773 18.36 119.453 17.0533 118.812 15.96C118.199 14.84 117.373 14 116.333 13.44C115.319 12.8533 114.226 12.56 113.053 12.56C111.906 12.56 110.813 12.8533 109.773 13.44C108.759 14.0267 107.933 14.88 107.293 16C106.679 17.12 106.373 18.44 106.373 19.96C106.373 21.48 106.679 22.8133 107.293 23.96C107.933 25.08 108.759 25.9333 109.773 26.52C110.813 27.1067 111.906 27.4 113.053 27.4C114.226 27.4 115.319 27.1067 116.333 26.52C117.373 25.9067 118.199 25.0267 118.812 23.88C119.453 22.7333 119.773 21.4 119.773 19.88ZM147.122 19.44C147.122 20.2667 147.069 21.0133 146.962 21.68H130.122C130.255 23.44 130.909 24.8533 132.082 25.92C133.255 26.9867 134.695 27.52 136.402 27.52C138.855 27.52 140.589 26.4933 141.602 24.44H146.522C145.855 26.4667 144.642 28.1333 142.882 29.44C141.149 30.72 138.989 31.36 136.402 31.36C134.295 31.36 132.402 30.8933 130.722 29.96C129.069 29 127.762 27.6667 126.802 25.96C125.869 24.2267 125.402 22.2267 125.402 19.96C125.402 17.6933 125.855 15.7067 126.762 14C127.695 12.2667 128.989 10.9333 130.642 10C132.322 9.06667 134.242 8.6 136.402 8.6C138.482 8.6 140.335 9.05333 141.962 9.96C143.589 10.8667 144.855 12.1467 145.762 13.8C146.669 15.4267 147.122 17.3067 147.122 19.44ZM142.362 18C142.335 16.32 141.735 14.9733 140.562 13.96C139.389 12.9467 137.935 12.44 136.202 12.44C134.629 12.44 133.282 12.9467 132.162 13.96C131.042 14.9467 130.375 16.2933 130.162 18H142.362ZM154.169 12.16C154.836 11.04 155.716 10.1733 156.809 9.56C157.929 8.92 159.249 8.6 160.769 8.6V13.32H159.609C157.823 13.32 156.463 13.7733 155.529 14.68C154.623 15.5867 154.169 17.16 154.169 19.4V31H149.609V8.96H154.169V12.16ZM171.681 20L181.841 31H175.681L167.521 21.52V31H162.961V1.4H167.521V18.6L175.521 8.96H181.841L171.681 20ZM185.429 6.04C184.603 6.04 183.909 5.76 183.349 5.2C182.789 4.64 182.509 3.94667 182.509 3.12C182.509 2.29333 182.789 1.6 183.349 1.04C183.909 0.479999 184.603 0.199998 185.429 0.199998C186.229 0.199998 186.909 0.479999 187.469 1.04C188.029 1.6 188.309 2.29333 188.309 3.12C188.309 3.94667 188.029 4.64 187.469 5.2C186.909 5.76 186.229 6.04 185.429 6.04ZM187.669 8.96V31H183.109V8.96H187.669ZM196.976 12.68V24.88C196.976 25.7067 197.163 26.3067 197.536 26.68C197.936 27.0267 198.603 27.2 199.536 27.2H202.336V31H198.736C196.683 31 195.11 30.52 194.016 29.56C192.923 28.6 192.376 27.04 192.376 24.88V12.68H189.776V8.96H192.376V3.48H196.976V8.96H202.336V12.68H196.976Z" fill="#644DFF"/>
</svg>
