<svg width="1018" height="1373" viewBox="0 0 1018 1373" fill="none" xmlns="http://www.w3.org/2000/svg">
<path d="M260.862 359.924L260.935 359.888L260.993 359.83L310.622 310.208C335.107 285.724 347.538 273.282 354.357 265.912C357.768 262.226 359.789 259.795 361.217 257.751C362.649 255.702 363.477 254.052 364.505 251.951C372.569 235.476 373.312 220.363 367.08 200.471L366.603 200.62L367.08 200.471C365.254 194.645 363.051 186.44 362.186 182.248C343.915 93.7974 405.186 10.5385 495.693 0.850438C500.39 0.347987 508.668 0.414003 517.073 0.869171C525.475 1.32421 533.951 2.16525 539.04 3.19927C595.177 14.6053 639.203 55.1723 655.065 110.105C663.032 137.703 662.305 170.826 653.113 198.857C643.736 227.45 622.491 256.349 598.142 273.636C581.384 285.532 559.896 294.858 538.682 299.437C530.299 301.246 525.424 301.615 509.64 301.615C499.047 301.615 491.702 301.291 484.369 300.142C477.035 298.993 469.694 297.017 459.109 293.698C449.016 290.533 440.647 289.121 432.665 289.563C424.68 290.005 417.117 292.301 408.631 296.501L408.853 296.949L408.631 296.501C400.783 300.387 398.641 302.308 371.195 329.77C355.201 345.774 338.691 363.169 334.518 368.42C308.314 401.394 292.508 439.05 286.556 482.664C285.913 487.374 285.391 499.102 285.391 508.731C285.391 518.361 285.913 530.089 286.556 534.799C292.889 581.205 310.786 621.648 340.003 655.558C345.23 661.625 361.159 678.1 375.398 692.17C398.696 715.192 402.073 718.168 408.92 721.527C417.021 725.503 424.313 727.616 432.371 727.899C440.421 728.182 449.203 726.638 460.282 723.35C478.323 717.995 488.191 716.219 503.662 715.533C538.412 713.993 572.299 724.411 599.953 745.136C609.308 752.147 624.913 768.279 632.247 778.522C643.939 794.853 653.03 816.183 657.321 837.367C658.699 844.168 659.33 855.457 659.239 866.795C659.148 878.132 658.335 889.452 656.847 896.313C653.828 910.242 649.571 921.934 642.558 935.559C634.891 950.456 626.607 961.391 613.076 974.464C591.763 995.054 568.12 1007.64 538.91 1013.94C532.357 1015.35 526.112 1015.73 509.14 1015.73C490.269 1015.73 486.413 1015.45 477.249 1013.4C419.422 1000.52 373.955 955.436 361.607 898.749C355.797 872.083 356.958 846.368 365.205 819.163C368.693 807.652 370.569 800.058 370.981 793.597C371.395 787.112 370.334 781.795 368.008 774.838C367.026 771.899 366.143 769.508 364.546 766.768C362.953 764.033 360.659 760.968 356.871 756.656C349.3 748.038 335.695 734.368 309.608 708.304C286.745 685.458 273.928 672.733 266.088 665.365C258.251 658.001 255.349 655.95 252.321 654.499C242.609 649.844 234.99 648.111 224.141 648.09C219.94 648.082 217.147 648.199 213.959 648.779C210.78 649.358 207.223 650.396 201.489 652.211C183.257 657.98 169.152 660.232 151.291 660.227C135.214 660.223 123.32 658.647 109.846 654.742C68.3056 642.705 35.6522 615.488 16.5789 577.009C4.38307 552.404 -0.01851 531.907 0.954596 504.249C1.82508 479.523 6.23316 462.354 17.2593 440.735C38.1264 399.824 76.0139 371.225 122.243 361.508C128.838 360.121 135.314 359.732 152.14 359.737C163.914 359.74 170.227 359.809 176.295 360.668C182.361 361.526 188.192 363.176 198.998 366.368C210.48 369.76 219.488 371.352 227.721 371.054C235.964 370.756 243.396 368.564 251.731 364.441L260.862 359.924ZM358.563 488.468C367.024 421.245 419.924 367.305 486.796 357.709C507.162 354.786 535.416 357.288 555.428 363.788C567.17 367.601 586.084 377.207 596.349 384.571C619.091 400.887 638.592 425.742 648.722 451.324C662.085 485.069 662.745 521.291 650.645 557.608C646.871 568.937 645.683 582.156 647.576 592.01C648.254 595.539 650.63 602.248 652.855 606.945C653.861 609.067 654.634 610.696 656.021 612.723C657.405 614.745 659.392 617.152 662.819 620.858C669.672 628.268 682.346 640.937 707.634 666.21C731.684 690.246 744.449 702.956 752.091 710.088C759.744 717.229 762.297 718.812 765.922 720.57C774.246 724.609 782.099 726.756 790.549 727.03C798.994 727.303 808.006 725.705 818.65 722.292C837.473 716.257 846.724 714.816 866.64 714.816C892.798 714.816 910.492 718.912 933.418 730.273C975.764 751.257 1006.03 790.52 1015.35 836.56C1016.69 843.156 1017.3 853.957 1017.21 864.763C1017.13 875.57 1016.34 886.317 1014.9 892.806C1008.55 921.372 995.607 946.027 976.433 966.087C962.367 980.804 950.607 989.517 933.073 998.22C898.269 1015.5 858.143 1018.33 819.288 1006.24C810.294 1003.45 803.571 1001.87 797.496 1001.4C791.411 1000.94 785.999 1001.59 779.625 1003.22L779.442 1003.27C775.249 1004.34 772.047 1005.16 768.799 1006.61C765.496 1008.09 762.166 1010.22 757.678 1013.91C748.782 1021.23 735.255 1034.75 708.27 1061.74L707.708 1062.3C685.361 1084.65 672.871 1097.22 665.566 1105C658.261 1112.77 656.105 1115.78 654.456 1119C651.588 1124.61 649.769 1129.01 648.684 1133.6C647.598 1138.19 647.253 1142.94 647.305 1149.24C647.346 1154.17 647.472 1157.29 648.045 1160.64C648.617 1163.99 649.632 1167.55 651.432 1173.38C666.283 1221.48 659.92 1266.29 632.497 1306.82C628.364 1312.92 621.521 1320.73 614.173 1328.04C606.826 1335.35 599.004 1342.13 592.927 1346.19C566.703 1363.67 539.943 1371.73 508.14 1371.73C476.242 1371.73 450.328 1363.88 423.928 1346.23C391.425 1324.5 369.075 1291.08 360.41 1251.23C358.924 1244.4 358.12 1233.04 358.041 1221.75C357.961 1210.45 358.608 1199.29 359.999 1192.84C366.688 1161.8 380.329 1136.23 401.431 1115.14C414.356 1102.22 426.187 1093.74 441.858 1086.16C465.337 1074.8 482.667 1070.82 508.64 1070.81C527.932 1070.8 535.61 1072 556.998 1078.34C568.414 1081.72 577.19 1083.32 585.198 1083.02C593.218 1082.73 600.433 1080.55 608.731 1076.43C613.209 1074.2 615.712 1072.87 620.652 1068.52C625.564 1064.2 632.911 1056.88 647.098 1042.69C663.1 1026.69 679.61 1009.29 683.777 1004.04C704.013 978.532 718.163 950.095 726.131 918.919C741.529 858.677 730.962 794.403 697.04 741.96C686.552 725.748 676.502 714.235 647.569 685.262C633.353 671.026 625.864 663.569 620.908 659.174C615.927 654.756 613.48 653.411 609.359 651.397C600.847 647.238 593.174 644.97 585.206 644.558C577.24 644.146 569.014 645.591 559.396 648.809C522.117 661.281 484.982 660.575 450.827 646.761C431.233 638.836 417.487 629.569 401.457 613.467C373.687 585.573 359.269 552.354 357.892 513.09C357.569 503.911 357.835 494.252 358.563 488.468Z" fill="#0f1b35" stroke="#0f1b35"/>
</svg>
