<svg width="52" height="34" viewBox="0 0 52 34" fill="none" xmlns="http://www.w3.org/2000/svg">
<path d="M44.4161 1.4C43.6403 2.17424 42.1906 3.59545 41.2106 4.5606C40.2306 5.53636 37.5662 8.15605 35.2897 10.394C33.0132 12.6318 30.7878 14.8272 30.3386 15.2727C29.8894 15.7182 28.7257 16.8636 27.7661 17.8182L26 19.5469V23.7682V28H28.45H30.9001V24.9455V21.8803L31.5432 21.2545C31.8903 20.9151 33.003 19.8227 34.0137 18.8257C35.0243 17.8288 36.821 16.0576 37.995 14.9015C39.1791 13.7454 40.3327 12.6 40.5675 12.3666C40.8125 12.1227 42.1294 10.8288 43.4973 9.49238L45.9882 7.05302L45.9984 3.52121C46.0086 1.59091 45.9678 0 45.927 0C45.8759 0 45.2022 0.625757 44.4161 1.4Z" fill="#5BEBD4"/>
<path d="M41.0059 18.3664V21.7327H38.0029H35L35.0203 24.4943L35.0508 27.2673L38.0233 27.3015L41.0059 27.3244L41.0263 30.6679L41.0568 34H43.5H45.9431L45.9736 30.6679L45.994 27.3244L48.9766 27.3015L51.9491 27.2673L51.9796 24.4943L52 21.7327H48.997H45.994V18.3664V15H43.5H41.0059V18.3664Z" fill="#5BEBD4"/>
<path d="M0 18.5052V34L7.97378 33.959C16.7675 33.9077 16.7572 33.9077 18.5406 33.2407C20.7236 32.4197 22.1483 30.8497 22.7735 28.582C22.9784 27.8636 22.9989 27.525 22.9989 25.1136C23.0092 22.1377 22.9579 21.7683 22.2917 20.3625C21.8613 19.4389 21.1029 18.6693 20.1599 18.187L19.4937 17.8381L19.9447 17.5713C21.0209 16.9557 21.974 15.6627 22.4147 14.2363C22.6812 13.3538 22.6812 9.45448 22.4147 8.38732C21.8305 6.0682 20.1702 4.334 17.7617 3.52334C16.296 3.03079 15.7323 3 7.61507 3H0V18.5052ZM15.2916 7.4843C16.5318 7.95632 17.2492 8.68489 17.5772 9.81366C17.7207 10.2857 17.7412 10.7167 17.7104 11.8146C17.6797 13.0973 17.6489 13.2615 17.3927 13.7951C16.8495 14.8931 15.8143 15.5806 14.3282 15.8269C13.9592 15.8782 11.7864 15.9295 9.30616 15.9295H4.91956V11.5581V7.19695L9.81862 7.22775C14.5332 7.25855 14.7279 7.26877 15.2916 7.4843ZM15.1686 20.1983C16.4805 20.4959 17.5464 21.4092 17.8949 22.5481C18.1101 23.246 18.1921 25.329 18.0589 26.3655C17.9154 27.4224 17.5977 28.0689 16.911 28.6845C16.337 29.2079 15.6196 29.5157 14.6357 29.6799C14.2667 29.7313 12.0427 29.7826 9.4599 29.7826H4.91956V24.9083V20.0341H9.69563C13.6518 20.0341 14.5844 20.0649 15.1686 20.1983Z" fill="#5BEBD4"/>
</svg>
