<svg width="56" height="56" viewBox="0 0 56 56" fill="none" xmlns="http://www.w3.org/2000/svg">
<path d="M24 18.6667H21.3333C20.626 18.6667 19.9478 18.9476 19.4477 19.4477C18.9476 19.9478 18.6666 20.6261 18.6666 21.3334V37.3334C18.6666 38.0406 18.9476 38.7189 19.4477 39.219C19.9478 39.7191 20.626 40 21.3333 40H34.6666C35.3739 40 36.0521 39.7191 36.5522 39.219C37.0523 38.7189 37.3333 38.0406 37.3333 37.3334V21.3334C37.3333 20.6261 37.0523 19.9478 36.5522 19.4477C36.0521 18.9476 35.3739 18.6667 34.6666 18.6667H32" stroke="white" stroke-width="2" stroke-linecap="round" stroke-linejoin="round"/>
<path d="M29.3333 16H26.6667C25.1939 16 24 17.1939 24 18.6667C24 20.1394 25.1939 21.3333 26.6667 21.3333H29.3333C30.8061 21.3333 32 20.1394 32 18.6667C32 17.1939 30.8061 16 29.3333 16Z" stroke="white" stroke-width="2" stroke-linecap="round" stroke-linejoin="round"/>
<path d="M30.6667 26.6667H27.3334C26.8029 26.6667 26.2942 26.8774 25.9192 27.2525C25.5441 27.6275 25.3334 28.1363 25.3334 28.6667C25.3334 29.1971 25.5441 29.7058 25.9192 30.0809C26.2942 30.456 26.8029 30.6667 27.3334 30.6667H28.6667C29.1971 30.6667 29.7058 30.8774 30.0809 31.2525C30.456 31.6275 30.6667 32.1363 30.6667 32.6667C30.6667 33.1971 30.456 33.7058 30.0809 34.0809C29.7058 34.456 29.1971 34.6667 28.6667 34.6667H25.3334" stroke="white" stroke-width="2" stroke-linecap="round" stroke-linejoin="round"/>
<path d="M28 25.3333V26.6666M28 34.6666V36V34.6666Z" stroke="white" stroke-width="2" stroke-linecap="round" stroke-linejoin="round"/>
<rect x="1" y="1" width="54" height="54" rx="27" stroke="url(#paint0_linear_232_1433)" stroke-width="2"/>
<defs>
<linearGradient id="paint0_linear_232_1433" x1="3.9375" y1="3.0625" x2="50.3125" y2="51.625" gradientUnits="userSpaceOnUse">
<stop stop-color="white" stop-opacity="0.18"/>
<stop offset="1" stop-color="white" stop-opacity="0"/>
</linearGradient>
</defs>
</svg>
