<svg width="569" height="390" viewBox="0 0 569 390" fill="none" xmlns="http://www.w3.org/2000/svg">
<path d="M511.986 356.103H487.314V356.387H511.986V356.103Z" fill="#EBEBEB"/>
<path d="M392.234 350.208H353.417V350.493H392.234V350.208Z" fill="#EBEBEB"/>
<path d="M501.995 345.542H451.319V345.827H501.995V345.542Z" fill="#EBEBEB"/>
<path d="M196.897 351.278H184.219V351.562H196.897V351.278Z" fill="#EBEBEB"/>
<path d="M174.08 351.278H130.392V351.562H174.08V351.278Z" fill="#EBEBEB"/>
<path d="M106.983 346.475H75.4609V346.76H106.983V346.475Z" fill="#EBEBEB"/>
<path d="M245.888 131.223L246.4 116.27L237.227 113.265C236.833 108.198 236.011 103.172 234.769 98.2436L242.553 92.5536L237.273 78.5107L227.646 79.2845C225.363 74.76 222.698 70.4389 219.68 66.3682L224.664 58.0494L214.422 47.1132L205.819 51.5173C201.95 48.2104 197.817 45.2264 193.46 42.5954L194.848 33.0362L181.192 26.8455L174.933 34.1742C170.105 32.6296 165.156 31.4877 160.139 30.7602L157.863 21.3944L142.865 20.8823L139.906 30.066C134.843 30.464 129.822 31.2824 124.895 32.5127L119.114 24.7743L105.072 30.0205L105.845 39.648C101.323 41.9653 97.0026 44.6565 92.9289 47.6936L84.5532 42.5954L73.5715 52.8374L77.9755 61.4862C74.6678 65.3355 71.698 69.4627 69.0991 73.8221L59.5513 72.3882L53.3151 86.0442L60.6893 92.2918C59.1338 97.1174 57.9917 102.067 57.2753 107.086L47.7958 109.464L47.2837 124.418L56.5015 127.422C56.8828 132.486 57.7014 137.509 58.9482 142.432L51.1643 148.122L56.456 162.176L66.0834 161.403C68.3603 165.93 71.0256 170.252 74.0494 174.319L69.0536 182.638L79.2956 193.574L87.8989 189.17C91.7574 192.476 95.8835 195.456 100.235 198.08L98.8009 207.628L112.457 213.83L118.75 206.502C123.579 208.06 128.527 209.221 133.544 209.972L135.82 219.338L150.819 219.85L153.778 210.667C158.844 210.264 163.868 209.446 168.8 208.22L174.49 215.958L188.532 210.712L187.804 201.085C192.318 198.753 196.637 196.062 200.72 193.039L208.994 198.023L219.975 187.781L215.571 179.133C218.88 175.284 221.85 171.157 224.448 166.797L233.996 168.231L240.232 154.575L232.858 148.316C234.439 143.494 235.601 138.544 236.328 133.522L245.888 131.223ZM144.845 179.667C133.109 179.271 121.756 175.403 112.219 168.553C102.683 161.703 95.3917 152.178 91.2692 141.184C87.1467 130.189 86.3775 118.219 89.059 106.788C91.7404 95.3562 97.7521 84.9767 106.334 76.9623C114.915 68.9479 125.68 63.6585 137.268 61.7634C148.856 59.8683 160.746 61.4525 171.433 66.3156C182.121 71.1787 191.126 79.1023 197.309 89.084C203.493 99.0657 206.577 110.657 206.171 122.392C205.631 138.119 198.867 152.987 187.367 163.728C175.867 174.468 160.571 180.202 144.845 179.667Z" fill="#9AF6E7"/>
<path d="M501.858 81.7655L505.625 78.2491L504.134 75.2789C505.271 73.948 506.295 72.5243 507.195 71.0228L510.495 71.5122L512.624 66.8008L510.097 64.65C510.641 62.9842 511.041 61.2747 511.292 59.5404L514.535 58.7324L514.695 53.5659L511.531 52.5417C511.392 50.7919 511.111 49.0564 510.689 47.3524L513.363 45.3609L511.542 40.5244L508.231 40.7862C507.432 39.2263 506.507 37.7343 505.466 36.3252L507.184 33.4802L503.645 29.702L500.686 31.2156C499.353 30.081 497.93 29.0571 496.43 28.1543L496.908 24.8542L492.208 22.7033L490.046 25.2411C488.377 24.7214 486.668 24.3408 484.936 24.1031L484.128 20.8712L478.962 20.6777L477.926 23.8641C476.183 23.9973 474.454 24.279 472.759 24.7062L470.779 22.0319L465.931 23.8413L466.205 27.1643C464.64 27.9551 463.148 28.8803 461.744 29.9296L458.876 28.2113L455.098 31.7277L456.566 34.6296C455.42 35.9566 454.392 37.3807 453.493 38.8857L450.204 38.3964L448.065 43.1077L450.603 45.2699C450.076 46.9332 449.696 48.639 449.465 50.3681L446.21 51.1761L446.051 56.3426L449.226 57.3668C449.355 59.117 449.633 60.853 450.056 62.5561L447.371 64.5362L449.191 69.3727L452.514 69.1224C453.313 70.6822 454.238 72.1742 455.28 73.5833L453.561 76.4283L457.101 80.2065L460.059 78.6929C461.389 79.8312 462.813 80.8553 464.315 81.7542L463.826 85.043L468.537 87.1938L470.7 84.6674C472.37 85.1817 474.079 85.5623 475.809 85.8054L476.617 89.0374L481.784 89.2308L482.819 86.0444C484.562 85.912 486.291 85.6302 487.986 85.2023L489.966 87.8766L494.814 86.0672L494.552 82.7442C496.112 81.9523 497.601 81.0271 499.002 79.9789L501.858 81.7655ZM474.979 59.9956C473.985 58.9307 473.329 57.5951 473.095 56.1575C472.86 54.72 473.057 53.2452 473.661 51.9197C474.265 50.5942 475.248 49.4776 476.487 48.7111C477.725 47.9447 479.163 47.5627 480.619 47.6137C482.075 47.6647 483.483 48.1462 484.664 48.9974C485.846 49.8487 486.749 51.0313 487.259 52.3958C487.768 53.7602 487.862 55.2452 487.528 56.6628C487.193 58.0804 486.446 59.367 485.38 60.3598C484.672 61.0267 483.84 61.5467 482.93 61.8897C482.021 62.2327 481.052 62.3919 480.08 62.358C479.109 62.3241 478.154 62.0979 477.27 61.6924C476.387 61.2869 475.592 60.7102 474.933 59.9956H474.979Z" fill="#9AF6E7"/>
<path d="M364.16 235.304L352.393 227.168C351.24 222.931 349.653 218.824 347.659 214.911L350.675 203.076L333.605 184.8L321.587 186.996C317.817 184.737 313.825 182.873 309.673 181.431L302.367 169.13L277.331 168.276L269.205 180.043C264.973 181.196 260.87 182.778 256.96 184.766L245.125 181.75L226.849 198.82L229.045 210.815C226.789 214.592 224.928 218.593 223.492 222.752L211.19 230.058L210.337 255.094L222.115 263.219C223.249 267.479 224.832 271.607 226.838 275.533L223.788 287.265L240.858 305.542L252.795 303.357C256.594 305.618 260.613 307.486 264.79 308.933L272.084 321.212L297.12 322.077L305.234 310.31C309.504 309.157 313.645 307.57 317.593 305.576L329.36 308.58L347.648 291.51L345.451 279.516C347.715 275.738 349.576 271.733 351.005 267.567L363.307 260.261L364.16 235.304ZM286.264 273.302C280.706 273.112 275.329 271.278 270.813 268.033C266.297 264.787 262.845 260.276 260.893 255.068C258.942 249.861 258.578 244.191 259.848 238.777C261.117 233.363 263.964 228.447 268.028 224.65C272.092 220.854 277.19 218.348 282.678 217.449C288.166 216.549 293.797 217.298 298.86 219.599C303.923 221.9 308.19 225.651 311.121 230.377C314.052 235.102 315.516 240.591 315.328 246.149C315.067 253.604 311.859 260.65 306.407 265.741C300.956 270.831 293.707 273.551 286.253 273.302H286.264Z" fill="#9AF6E7"/>
<path d="M390.96 164.361H390.88L371.17 163.69C370.771 163.683 370.38 163.575 370.034 163.376C369.688 163.177 369.397 162.893 369.19 162.552L363.876 153.619C361.011 152.571 358.24 151.284 355.591 149.772L347.09 151.24C346.694 151.313 346.286 151.284 345.904 151.157C345.522 151.029 345.178 150.808 344.905 150.512L331.443 136.105C331.16 135.806 330.959 135.44 330.86 135.041C330.76 134.643 330.765 134.225 330.874 133.829L333.024 125.396C331.692 122.664 330.603 119.819 329.77 116.895L321.201 110.978C320.868 110.75 320.599 110.441 320.418 110.081C320.237 109.721 320.15 109.321 320.165 108.918L320.836 89.2079C320.85 88.8099 320.961 88.4213 321.159 88.0761C321.357 87.7309 321.637 87.4396 321.974 87.2277L330.93 81.9133C331.963 79.0555 333.247 76.2946 334.766 73.6628L333.195 65.0936C333.122 64.6958 333.15 64.2859 333.277 63.9019C333.405 63.518 333.627 63.1724 333.923 62.8973L348.331 49.4461C348.628 49.1626 348.994 48.9603 349.393 48.8586C349.791 48.757 350.209 48.7595 350.607 48.8657L359.073 51.028C361.799 49.6947 364.636 48.6019 367.551 47.7619L373.469 39.1928C373.689 38.8524 373.996 38.5769 374.358 38.3949C374.72 38.2128 375.124 38.1308 375.529 38.1572L395.227 38.84C395.628 38.8485 396.02 38.957 396.368 39.1558C396.716 39.3546 397.008 39.6372 397.219 39.978L402.533 48.9226C405.377 49.9668 408.126 51.2537 410.75 52.7691L419.353 51.1873C419.749 51.1137 420.157 51.1419 420.54 51.2693C420.922 51.3967 421.265 51.6191 421.538 51.9156L435.001 66.3227C435.281 66.6223 435.481 66.9886 435.58 67.3868C435.68 67.7851 435.676 68.2022 435.57 68.5987L433.407 77.054C434.741 79.781 435.837 82.6175 436.685 85.5321L445.243 91.4497C445.575 91.6778 445.844 91.9863 446.025 92.3465C446.206 92.7066 446.293 93.1067 446.278 93.5095L445.607 113.208C445.593 113.608 445.483 113.998 445.284 114.345C445.086 114.692 444.806 114.985 444.469 115.2L435.513 120.514C434.473 123.365 433.19 126.122 431.678 128.753L433.248 137.334C433.322 137.73 433.293 138.138 433.166 138.52C433.039 138.903 432.816 139.246 432.52 139.519L418.022 152.981C417.723 153.264 417.357 153.465 416.958 153.564C416.56 153.664 416.142 153.659 415.746 153.55L407.324 151.4C404.58 152.727 401.729 153.819 398.801 154.666L392.94 163.223C392.729 163.561 392.438 163.842 392.092 164.04C391.747 164.239 391.358 164.349 390.96 164.361ZM372.65 158.933L389.72 159.513L395.41 151.331C395.725 150.854 396.208 150.512 396.764 150.375C399.966 149.5 403.073 148.306 406.038 146.813C406.555 146.564 407.143 146.504 407.7 146.643L415.666 148.68L428.184 137.015L426.75 128.787C426.639 128.212 426.745 127.617 427.046 127.115C428.736 124.297 430.128 121.31 431.2 118.204C431.38 117.641 431.761 117.163 432.269 116.861L440.839 111.786L441.419 94.7158L433.225 89.0258C432.794 88.731 432.47 88.3035 432.304 87.8081C432.304 87.7512 432.304 87.6829 432.304 87.6146C431.427 84.4691 430.237 81.4192 428.753 78.5106C428.49 77.99 428.425 77.3913 428.571 76.8264L430.619 68.7694L418.955 56.2514L410.773 57.7535C410.201 57.8571 409.612 57.7521 409.111 57.4576C406.288 55.7641 403.298 54.3646 400.189 53.2812C400.011 53.224 399.839 53.1477 399.677 53.0536C399.349 52.8489 399.076 52.5678 398.88 52.2342L393.748 43.6423L376.678 43.0506L370.988 51.2556C370.649 51.7366 370.148 52.0798 369.577 52.2229C366.408 53.0889 363.334 54.2748 360.405 55.762C359.888 56.0256 359.293 56.0904 358.732 55.9441L350.675 53.8957L338.157 65.5602L339.659 73.7197C339.748 74.2344 339.672 74.764 339.443 75.2332L339.329 75.4267C337.636 78.2553 336.244 81.2532 335.175 84.3714C334.987 84.906 334.616 85.3573 334.128 85.6459L325.559 90.7328L324.979 107.803L333.184 113.493C333.652 113.813 333.99 114.289 334.14 114.836C334.993 118.031 336.179 121.128 337.679 124.076C337.76 124.244 337.825 124.419 337.872 124.6C337.958 124.974 337.958 125.363 337.872 125.738L335.824 133.704L347.488 146.222L355.614 144.731C356.181 144.627 356.768 144.732 357.264 145.027C360.109 146.717 363.117 148.116 366.243 149.203C366.807 149.371 367.284 149.75 367.574 150.262L372.65 158.933ZM383.199 137.345C382.778 137.345 382.357 137.345 381.936 137.345C372.476 137.179 363.464 133.282 356.863 126.504C350.261 119.726 346.604 110.615 346.687 101.154C346.771 91.6927 350.588 82.6473 357.307 75.9865C364.027 69.3256 373.106 65.5885 382.567 65.5885C392.029 65.5885 401.107 69.3256 407.827 75.9865C414.547 82.6473 418.364 91.6927 418.447 101.154C418.53 110.615 414.873 119.726 408.272 126.504C401.67 133.282 392.659 137.179 383.199 137.345ZM383.199 70.1008C374.932 70.2434 367.056 73.6458 361.285 79.5674C355.515 85.4891 352.317 93.4504 352.389 101.718C352.46 109.986 355.794 117.891 361.666 123.713C367.538 129.534 375.471 132.8 383.739 132.8C392.008 132.8 399.941 129.534 405.813 123.713C411.684 117.891 415.019 109.986 415.09 101.718C415.161 93.4504 411.964 85.4891 406.193 79.5674C400.423 73.6458 392.547 70.2434 384.28 70.1008H383.199Z" fill="#0E0B38"/>
<path d="M102.67 240.277L107.052 239.094L108.224 234.713L106.517 233.006L104.707 236.75L100.952 238.559L102.67 240.277Z" fill="#E0E0E0"/>
<path d="M102.42 237.341C102.078 236.95 101.897 236.444 101.914 235.924C101.931 235.405 102.145 234.911 102.513 234.544C102.88 234.176 103.374 233.962 103.893 233.945C104.413 233.927 104.919 234.108 105.311 234.451L103.137 231.185L100.144 232.641L99.5068 235.714L102.42 237.341Z" fill="#E0E0E0"/>
<path d="M106.858 233.347L103.649 230.138L99.2679 231.276L98.1299 235.657L101.282 238.9L105.663 237.762L106.858 233.347ZM101.032 235.976C100.821 235.791 100.65 235.565 100.53 235.311C100.41 235.058 100.343 234.783 100.334 234.502C100.324 234.222 100.373 233.943 100.476 233.682C100.579 233.421 100.734 233.184 100.933 232.986C101.131 232.788 101.368 232.632 101.629 232.529C101.889 232.426 102.169 232.378 102.449 232.387C102.729 232.397 103.005 232.463 103.258 232.583C103.511 232.703 103.737 232.874 103.922 233.085C104.265 233.476 104.446 233.983 104.428 234.502C104.411 235.022 104.197 235.515 103.829 235.883C103.462 236.251 102.968 236.465 102.449 236.482C101.929 236.499 101.423 236.318 101.032 235.976Z" fill="#9AF6E7"/>
<path d="M284.5 389.185C406.36 389.185 505.147 383.417 505.147 376.302C505.147 369.188 406.36 363.42 284.5 363.42C162.64 363.42 63.853 369.188 63.853 376.302C63.853 383.417 162.64 389.185 284.5 389.185Z" fill="#9AF6E7"/>
<path d="M98.6875 39.9208C97.5495 34.9023 98.0502 30.6917 100.212 27.2549C102.374 23.8181 105.902 21.5649 110.921 20.4269C115.939 19.2889 120.275 19.7441 123.666 21.8608C127.058 23.9775 129.356 27.5508 130.494 32.4442C131.298 35.4644 131.364 38.6335 130.688 41.6847C130.026 44.2188 128.628 46.4998 126.671 48.2396C124.346 50.1972 121.555 51.522 118.568 52.0861C115.64 52.8634 112.575 52.9684 109.601 52.3933C107.016 51.765 104.677 50.3779 102.887 48.4103C100.747 46.0107 99.2965 43.0774 98.6875 39.9208ZM108.178 37.8042C108.884 40.8995 109.965 42.9934 111.422 44.0859C112.173 44.5873 113.019 44.9314 113.907 45.0976C114.796 45.2638 115.708 45.2487 116.591 45.0531C117.473 44.8575 118.307 44.4855 119.042 43.9594C119.776 43.4334 120.397 42.7642 120.867 41.992C121.686 40.4102 121.698 37.8952 120.924 34.4698C120.264 31.5793 119.198 29.5992 117.726 28.5295C116.985 27.9976 116.134 27.6387 115.236 27.4792C114.338 27.3196 113.416 27.3636 112.537 27.6077C111.657 27.7724 110.826 28.1345 110.107 28.6667C109.387 29.1989 108.798 29.8874 108.383 30.6803C107.541 32.3531 107.461 34.6291 108.178 37.8042Z" fill="#0D0D0D"/>
<path d="M134.955 36.1656C134.551 34.6148 134.479 32.996 134.744 31.4154C135.009 29.8347 135.604 28.3279 136.492 26.9934C137.487 25.5756 138.752 24.3683 140.214 23.4406C141.677 22.513 143.309 21.8834 145.015 21.5879C149.469 20.5788 153.125 21.1061 155.986 23.1697C158.393 25.0356 160.029 27.7219 160.583 30.7167C161.137 33.7114 160.57 36.8054 158.99 39.4089C157.215 42.1174 154.324 43.923 150.318 44.8258C147.232 45.6886 143.94 45.4223 141.032 44.0747C139.478 43.3149 138.12 42.2055 137.066 40.8333C136.011 39.4612 135.289 37.8636 134.955 36.1656ZM143.502 34.1969C143.732 35.7871 144.509 37.2477 145.698 38.3278C146.17 38.6847 146.713 38.9347 147.291 39.0604C147.869 39.186 148.467 39.1844 149.045 39.0555C149.622 38.9266 150.164 38.6737 150.633 38.3141C151.103 37.9546 151.489 37.4972 151.764 36.9736C152.359 35.445 152.416 33.7589 151.923 32.194C151.684 30.6411 150.916 29.2182 149.749 28.1655C149.297 27.7985 148.766 27.5409 148.197 27.4126C147.629 27.2843 147.038 27.2888 146.472 27.4258C145.881 27.5482 145.327 27.8034 144.849 28.1721C144.372 28.5408 143.985 29.0134 143.718 29.5539C143.105 31.0286 143.029 32.6716 143.502 34.1969Z" fill="#0D0D0D"/>
<path d="M169.084 48.9338L162.108 18.2078L170.074 16.387L170.825 19.6758C171.387 18.3642 172.203 17.1768 173.226 16.1822C174.349 15.2292 175.69 14.5685 177.13 14.2589C178.46 13.897 179.86 13.8762 181.201 14.1985C182.541 14.5207 183.779 15.1755 184.8 16.1025C187.049 18.205 188.575 20.9657 189.158 23.9888C190 27.6873 189.75 30.7144 188.43 33.0928C187.802 34.23 186.934 35.217 185.887 35.9853C184.84 36.7537 183.638 37.285 182.365 37.5424C181.138 37.8333 179.866 37.8835 178.62 37.6904C177.426 37.481 176.287 37.0278 175.275 36.3589L177.687 46.9764L169.084 48.9338ZM173.192 27.4711C173.401 28.8924 174.112 30.1921 175.195 31.1355C175.63 31.4681 176.134 31.6983 176.67 31.8086C177.206 31.919 177.76 31.9067 178.29 31.7728C178.783 31.674 179.246 31.4608 179.641 31.1505C180.037 30.8402 180.353 30.4413 180.566 29.9861C181.05 28.5618 181.05 27.0177 180.566 25.5934C180.358 24.165 179.672 22.8492 178.62 21.8608C178.23 21.5367 177.771 21.3065 177.277 21.1881C176.784 21.0698 176.27 21.0663 175.775 21.178C175.253 21.2908 174.762 21.5204 174.34 21.8495C173.919 22.1786 173.577 22.5987 173.34 23.0784C172.783 24.4812 172.731 26.034 173.192 27.4711Z" fill="#0D0D0D"/>
<path d="M192.811 28.1428L201.096 25.423C201.537 26.2239 202.223 26.8622 203.053 27.2438C203.947 27.5027 204.893 27.5233 205.797 27.3038C206.702 27.0842 207.533 26.632 208.208 25.992C208.397 25.7912 208.534 25.5474 208.608 25.2817C208.681 25.016 208.689 24.7364 208.629 24.4671C208.561 24.159 208.402 23.8784 208.173 23.6614C207.944 23.4444 207.655 23.301 207.344 23.2494C206.058 23.1083 204.76 23.1083 203.474 23.2494C201.316 23.433 199.146 23.433 196.988 23.2494C195.724 23.0661 194.54 22.5251 193.574 21.6904C192.543 20.7985 191.831 19.5951 191.546 18.2625C191.261 16.9298 191.417 15.5405 191.992 14.3048C192.656 12.9825 193.687 11.88 194.962 11.1297C196.777 10.0985 198.75 9.37188 200.8 8.9789C202.757 8.44767 204.781 8.20235 206.809 8.25058C208.082 8.33255 209.316 8.72312 210.405 9.38858C211.565 10.1711 212.549 11.1865 213.295 12.3702L205.329 14.9989C205.032 14.406 204.537 13.9353 203.93 13.6675C203.1 13.3705 202.199 13.3309 201.346 13.5537C200.593 13.6588 199.894 14.0063 199.355 14.5437C199.184 14.7269 199.06 14.9493 198.995 15.1913C198.929 15.4333 198.924 15.6876 198.979 15.9321C199.041 16.2012 199.183 16.4453 199.386 16.6322C199.589 16.8191 199.844 16.94 200.117 16.9791C201.39 17.1267 202.676 17.0999 203.941 16.8994C206.135 16.5814 208.362 16.5508 210.564 16.8084C211.95 17.004 213.247 17.6014 214.297 18.5267C215.246 19.3873 215.906 20.52 216.186 21.77C216.477 23.1104 216.371 24.5068 215.879 25.7872C215.277 27.3031 214.229 28.6007 212.874 29.5084C210.878 30.8133 208.642 31.707 206.297 32.1372C202.238 33.0628 199.203 33.1424 197.193 32.3762C195.234 31.5939 193.66 30.0737 192.811 28.1428Z" fill="#0D0D0D"/>
<path d="M220.601 0H229.944V7.1694L228.226 21.5879H222.445L220.601 7.19216V0ZM221.057 23.7614H229.774V31.4771H221.057V23.7614Z" fill="#0D0D0D"/>
<path d="M146.438 97.8792H146.233C141.112 95.8877 138.051 93.9531 136.458 91.6202C135.21 91.8565 133.92 91.6808 132.782 91.1195C131.448 90.4668 130.342 89.4279 129.607 88.1379C129.22 88.4344 128.765 88.6285 128.284 88.7021C127.802 88.7757 127.31 88.7265 126.853 88.559C125.45 88.0342 124.254 87.0728 123.439 85.8164C122.929 86.196 122.296 86.3707 121.664 86.3057C118.25 86.0326 113.698 79.2957 113.368 72.1263C113.364 71.9749 113.419 71.8281 113.521 71.7159C113.622 71.6037 113.763 71.5347 113.914 71.5231C113.989 71.5201 114.063 71.5318 114.133 71.5576C114.204 71.5834 114.268 71.6228 114.323 71.6735C114.378 71.7243 114.422 71.7853 114.454 71.8533C114.485 71.9212 114.503 71.9946 114.506 72.0694C114.824 78.8973 119.183 84.9629 121.766 85.1677C121.954 85.1889 122.144 85.1726 122.326 85.1198C122.508 85.0671 122.677 84.979 122.824 84.8605C121.934 83.238 121.375 81.4549 121.18 79.6146C120.985 77.7744 121.157 75.9137 121.686 74.1405C122.665 70.7265 123.53 69.3837 124.577 69.5885C126.534 70.0779 126.272 77.5545 125.237 82.4365C125.08 83.317 124.755 84.1592 124.281 84.9174C124.952 86.0423 125.965 86.9235 127.172 87.4323C127.493 87.5548 127.843 87.5824 128.18 87.5118C128.517 87.4412 128.827 87.2754 129.072 87.0341C128.184 84.8377 127.934 81.8334 129.209 78.0097C130.802 72.9684 131.485 72.8318 131.837 72.7408C131.97 72.7129 132.108 72.7214 132.236 72.7655C132.364 72.8096 132.478 72.8876 132.566 72.9911C133.624 74.186 132.361 82.0155 131.041 85.8847C130.886 86.3503 130.672 86.794 130.403 87.2048C131.014 88.4356 132.009 89.4342 133.237 90.0498C134.043 90.4415 134.939 90.6105 135.832 90.5391C135.729 90.3229 135.638 90.1067 135.547 89.8791C134.648 87.4324 135.092 84.6215 136.901 81.253C138.096 79.0339 139.075 77.987 139.985 77.987C140.227 77.9902 140.463 78.0626 140.664 78.1958C140.866 78.3289 141.025 78.5171 141.123 78.738C142.113 80.5702 141.397 86.613 139.439 89.6173C138.981 90.306 138.343 90.8568 137.596 91.2105C139.121 93.2134 142.022 94.9773 146.7 96.7753C146.77 96.8006 146.834 96.8397 146.889 96.8903C146.944 96.9408 146.988 97.0019 147.018 97.0698C147.049 97.1377 147.066 97.2111 147.068 97.2856C147.07 97.3601 147.057 97.4343 147.03 97.5037C146.985 97.6222 146.904 97.723 146.797 97.7908C146.69 97.8586 146.564 97.8897 146.438 97.8792ZM139.974 79.1363C139.974 79.1363 139.325 79.1363 137.891 81.8106C136.241 84.8605 135.82 87.3755 136.606 89.4921C136.701 89.7542 136.815 90.009 136.947 90.2546C137.563 89.9999 138.087 89.5632 138.449 89.0028C140.042 86.5675 140.805 81.5603 140.213 79.6029C140.133 79.2046 139.974 79.1363 139.974 79.1363ZM131.803 74.3454C131.187 75.641 130.677 76.9844 130.278 78.3625C129.405 80.7508 129.255 83.3432 129.846 85.8164L129.948 85.5205C131.143 81.9134 131.78 78.1449 131.837 74.3454H131.803ZM124.315 70.7607C124.122 70.9314 123.564 71.6483 122.779 74.425C121.85 77.5412 122.143 80.8942 123.598 83.8021C123.832 83.2934 124.004 82.7585 124.11 82.2089C125.328 76.6214 124.987 71.5686 124.349 70.7607H124.315Z" fill="#263238"/>
<path d="M189.705 157.533C187.885 157.551 186.094 157.083 184.515 156.179C184.385 156.101 184.291 155.975 184.253 155.828C184.215 155.682 184.235 155.526 184.31 155.394C184.348 155.33 184.398 155.274 184.457 155.229C184.517 155.185 184.585 155.152 184.657 155.134C184.729 155.116 184.804 155.113 184.877 155.124C184.951 155.136 185.021 155.161 185.084 155.2C189.147 157.579 194.393 155.917 195.474 154.176C195.552 154.067 195.608 153.943 195.637 153.812C195.666 153.681 195.669 153.546 195.645 153.414C193.567 153.533 191.51 152.948 189.807 151.752C186.905 149.943 186.677 149.397 186.7 148.964C186.706 148.84 186.745 148.719 186.813 148.615C186.881 148.511 186.976 148.427 187.087 148.372C188.225 147.803 193.358 150.159 195.497 151.57C195.753 151.741 195.99 151.939 196.203 152.162C197.043 151.971 197.801 151.517 198.365 150.865C198.682 150.492 198.912 150.052 199.036 149.579H198.809C196.988 149.761 195.167 148.976 193.221 147.178C191.878 145.948 191.366 145.095 191.537 144.424C191.588 144.235 191.693 144.065 191.838 143.934C191.983 143.803 192.163 143.716 192.356 143.684C193.927 143.286 197.818 144.947 199.4 146.688C199.753 147.067 200.004 147.529 200.129 148.031C201.619 147.337 203.19 145.755 205.045 143.172C205.088 143.11 205.143 143.058 205.206 143.018C205.27 142.977 205.341 142.95 205.415 142.937C205.489 142.925 205.565 142.927 205.638 142.944C205.711 142.96 205.78 142.992 205.841 143.035C205.963 143.124 206.046 143.257 206.071 143.406C206.097 143.555 206.063 143.707 205.978 143.832C203.827 146.836 202.029 148.543 200.231 149.237C200.138 150.078 199.793 150.872 199.241 151.513C198.585 152.275 197.724 152.832 196.76 153.118C196.814 153.39 196.814 153.669 196.759 153.941C196.705 154.212 196.597 154.47 196.442 154.7C195.486 156.327 192.732 157.533 189.705 157.533ZM188.692 149.636C189.079 149.92 189.625 150.296 190.41 150.774C191.634 151.599 193.04 152.115 194.507 152.276C192.675 151.177 190.724 150.292 188.692 149.636ZM192.663 144.799C192.99 145.415 193.444 145.954 193.995 146.381C195.679 147.94 197.215 148.657 198.695 148.475H199.059C198.978 148.121 198.805 147.796 198.558 147.53C196.965 145.732 193.46 144.617 192.663 144.799Z" fill="#263238"/>
<path d="M204.772 155.974L187.042 159.195L170.939 71.3184L136.731 77.5318L80.9688 176.538L86.9547 209.21L158.478 196.225L163.371 222.946L197.58 216.709L192.686 189.989L210.416 186.769L204.772 155.974ZM115.04 172.327L144.628 120.469L152.879 165.465L115.04 172.327Z" fill="#0f1b35"/>
<path d="M347.579 65.3552C347.041 59.831 345.818 54.3952 343.938 49.1729C342.004 44.1704 339.317 39.4924 335.972 35.3007C332.011 30.4239 327.092 26.4113 321.519 23.511C315.45 20.1804 307.4 17.8627 297.371 16.5578C276.545 13.8418 260.317 17.5365 248.687 27.6419C237.057 37.7474 229.394 57.0934 225.699 85.6799C224.224 96.3635 223.843 107.17 224.561 117.931C225.32 127.794 227.133 135.733 230.001 141.749C233.65 149.862 239.407 156.849 246.673 161.983C253.857 167.028 263.72 170.362 276.261 171.986C298.55 174.892 315.078 170.609 325.843 159.138C336.609 147.667 343.74 128.283 347.238 100.986C348.793 89.1666 348.907 77.2022 347.579 65.3552Z" fill="#0f1b35"/>
<path d="M286.514 160.299C283.772 160.208 280.824 159.957 277.854 159.57C267.43 158.216 259.373 155.576 253.888 151.73C248.418 147.867 244.093 142.598 241.37 136.48L241.313 136.355C239.128 131.803 237.694 125.26 237.068 117.009C236.405 107.099 236.756 97.1465 238.115 87.3074C242.178 55.762 250.565 42.5954 256.881 37.1102C264.255 30.7146 274.213 27.8241 287.3 28.2793C289.985 28.3703 292.83 28.6093 295.755 28.9849C304.153 30.1229 310.811 31.9437 315.522 34.5156C319.593 36.6121 323.197 39.5116 326.117 43.0392C328.671 46.2252 330.724 49.7826 332.205 53.5884C333.717 57.8321 334.695 62.2473 335.118 66.7323C336.332 77.6 336.221 88.5748 334.788 99.4157C331.636 123.928 325.536 141.158 316.671 150.626C310.094 157.636 300.227 160.868 286.503 160.344L286.514 160.299Z" fill="#263238"/>
<path d="M308.785 65.6853L308.933 61.3723L306.281 60.5075C306.168 59.0487 305.932 57.6021 305.576 56.1831L307.852 54.5216L306.327 50.4703L303.55 50.6979C302.897 49.3958 302.136 48.151 301.274 46.9766L302.708 44.5755L299.749 41.4232L297.268 42.6978C296.158 41.7434 294.971 40.8831 293.718 40.1259L294.116 37.3719L290.179 35.5853L288.381 37.7019C286.988 37.2507 285.561 36.9158 284.113 36.7005L283.442 34.0034L279.117 33.8555L278.264 36.4957C276.805 36.6124 275.359 36.8483 273.939 37.2012L272.267 34.9252L268.215 36.4388L268.443 39.2155C267.141 39.869 265.896 40.6303 264.722 41.4915L262.332 40.0462L259.168 42.9936L260.443 45.4859C259.486 46.5952 258.629 47.7871 257.882 49.0478L255.128 48.6267L253.33 52.5642L255.458 54.3623C254.996 55.7555 254.661 57.1876 254.457 58.6411L251.748 59.3239L251.6 63.6256L254.252 64.4905C254.363 65.9532 254.599 67.4037 254.958 68.8262L252.682 70.4763L254.206 74.5276L256.983 74.3C257.63 75.6057 258.391 76.8511 259.259 78.0213L257.814 80.4225L260.773 83.5747L263.254 82.3115C264.364 83.2623 265.551 84.1187 266.804 84.872L266.394 87.626L270.332 89.4127L272.141 87.3073C273.538 87.756 274.969 88.0872 276.42 88.2974L277.092 91.0058L281.405 91.1538L282.258 88.5023C283.721 88.3911 285.171 88.1551 286.594 87.7967L288.244 90.0727L292.295 88.5592L292.079 85.7938C293.376 85.1319 294.62 84.371 295.8 83.5178L298.19 84.9517L301.354 82.0043L300.091 79.5121C301.044 78.4065 301.897 77.2183 302.64 75.9615L305.394 76.3712L307.192 72.4337L305.075 70.6357C305.528 69.2445 305.859 67.8166 306.065 66.3682L308.785 65.6853ZM279.652 79.6486C276.282 79.5255 273.023 78.4065 270.288 76.4331C267.553 74.4596 265.463 71.7201 264.284 68.5603C263.104 65.4005 262.887 61.962 263.66 58.6789C264.432 55.3957 266.16 52.4151 268.626 50.1133C271.091 47.8114 274.183 46.2915 277.511 45.7453C280.84 45.1991 284.255 45.6512 287.327 47.0444C290.398 48.4377 292.988 50.7097 294.77 53.5736C296.551 56.4376 297.445 59.7651 297.337 63.1362C297.265 65.3832 296.75 67.5939 295.821 69.6413C294.892 71.6886 293.568 73.5324 291.925 75.0667C290.282 76.601 288.352 77.7956 286.246 78.5819C284.14 79.3682 281.899 79.7307 279.652 79.6486Z" fill="#0f1b35"/>
<path opacity="0.3" d="M326.743 144.867L327.061 141.954L325.309 141.249C325.306 140.257 325.222 139.268 325.058 138.29L326.64 137.277L325.832 134.466H323.943C323.57 133.552 323.116 132.672 322.589 131.837L323.659 130.29L321.838 128.014L320.097 128.742C319.391 128.044 318.63 127.405 317.821 126.83L318.242 124.987L315.681 123.575L314.338 124.93C313.424 124.553 312.48 124.253 311.516 124.031L311.197 122.176L308.296 121.846L307.579 123.598C306.59 123.603 305.604 123.694 304.631 123.871L303.618 122.255L300.807 123.086V124.975C299.893 125.353 299.013 125.81 298.179 126.341L296.631 125.203L294.355 127.024L295.083 128.765C294.39 129.471 293.754 130.232 293.183 131.041L291.339 130.631L289.94 133.192L291.282 134.523C290.901 135.44 290.6 136.388 290.383 137.357L288.517 137.664L288.21 140.566L289.951 141.294C289.952 142.279 290.039 143.261 290.213 144.23L288.608 145.243L289.428 148.054H291.328C291.708 148.964 292.165 149.839 292.694 150.671L291.556 152.219L293.376 154.495L295.14 153.755C295.841 154.455 296.602 155.092 297.416 155.656L297.018 157.533L299.578 158.933L300.91 157.602C301.826 157.969 302.769 158.262 303.732 158.478L304.062 160.344L306.964 160.663L307.67 158.922C308.676 158.92 309.681 158.837 310.674 158.671L311.687 160.276L314.486 159.457V157.567C315.401 157.183 316.284 156.726 317.126 156.202L318.651 157.34L320.927 155.508L320.188 153.767C320.889 153.061 321.532 152.3 322.111 151.491L323.943 151.9L325.354 149.34L324.011 148.02C324.377 147.103 324.67 146.16 324.888 145.197L326.743 144.867ZM312.096 143.729C311.615 144.61 310.883 145.329 309.993 145.794C309.103 146.259 308.095 146.449 307.097 146.341C306.099 146.233 305.155 145.832 304.385 145.187C303.615 144.543 303.053 143.684 302.771 142.72C302.49 141.757 302.5 140.731 302.801 139.773C303.102 138.815 303.68 137.968 304.463 137.339C305.246 136.71 306.197 136.327 307.198 136.239C308.198 136.151 309.202 136.362 310.082 136.845C311.259 137.493 312.132 138.581 312.51 139.871C312.887 141.162 312.738 142.549 312.096 143.729Z" fill="#0f1b35"/>
<path d="M342.868 95.6829L339.454 93.3387C339.118 92.12 338.66 90.9381 338.088 89.8109L338.953 86.3969L334.037 81.1279L330.623 81.7652C329.54 81.1204 328.397 80.583 327.209 80.1606L325.104 76.6101L317.9 76.3711L315.556 79.7851C314.336 80.1159 313.153 80.5736 312.028 81.1507L308.614 80.2744L303.345 85.202L303.982 88.616C303.329 89.6941 302.791 90.8385 302.378 92.03L298.839 94.1353L298.588 101.339L302.002 103.683C302.333 104.911 302.791 106.101 303.368 107.234L302.503 110.648L307.419 115.917L310.833 115.291C311.917 115.935 313.06 116.472 314.247 116.895L316.341 120.435L323.556 120.685L325.889 117.271C327.119 116.937 328.313 116.479 329.451 115.905L332.865 116.77L338.134 111.854L337.508 108.44C338.155 107.358 338.692 106.214 339.113 105.026L342.652 102.921L342.868 95.6829ZM320.415 106.631C318.814 106.576 317.264 106.047 315.963 105.111C314.662 104.176 313.667 102.875 313.105 101.374C312.543 99.8736 312.439 98.2398 312.805 96.6797C313.172 95.1195 313.993 93.7031 315.164 92.6096C316.336 91.516 317.805 90.7944 319.387 90.5361C320.969 90.2778 322.591 90.4943 324.05 91.1583C325.509 91.8222 326.738 92.9038 327.581 94.2663C328.425 95.6287 328.846 97.2108 328.791 98.8124C328.714 100.959 327.789 102.987 326.219 104.453C324.649 105.918 322.562 106.701 320.415 106.631Z" fill="#0D0D0D"/>
<path d="M367.574 38.18L368.166 36.7575C368.568 36.5308 368.949 36.2679 369.304 35.9723H370.624L372.171 33.6964L371.671 32.4786C371.862 32.073 372.015 31.6501 372.126 31.2154L373.264 30.1685L372.786 27.4942L371.352 26.9024C371.127 26.4989 370.864 26.1178 370.567 25.7644V24.4443L368.348 22.8967L367.119 23.4088C366.669 23.2505 366.204 23.1436 365.73 23.0901L364.683 21.9521L362.02 22.4301L361.417 23.864C360.995 24.0829 360.595 24.342 360.222 24.6378H358.914L357.366 26.9138L357.867 28.1315C357.714 28.5823 357.607 29.0474 357.548 29.5198L356.41 30.5782L356.888 33.2411L358.322 33.8328C358.539 34.2384 358.798 34.6199 359.096 34.9708V36.2795L361.372 37.8272L362.589 37.3265C363.045 37.4745 363.514 37.5775 363.989 37.6339L365.036 38.7719L367.574 38.18ZM361.884 30.8058C361.776 30.212 361.847 29.5996 362.088 29.0462C362.328 28.4928 362.728 28.0231 363.235 27.6967C363.743 27.3703 364.336 27.2018 364.939 27.2125C365.542 27.2232 366.129 27.4127 366.625 27.7569C367.12 28.1012 367.503 28.5847 367.723 29.1463C367.944 29.708 367.993 30.3224 367.865 30.912C367.736 31.5016 367.435 32.0398 367.001 32.4585C366.566 32.8771 366.017 33.1574 365.423 33.2638C364.628 33.4033 363.811 33.2234 363.148 32.7631C362.485 32.3028 362.031 31.5992 361.884 30.8058Z" fill="#0f1b35"/>
<path d="M336.404 30.6348L335.528 29.8951C337.406 27.566 339.726 25.6321 342.356 24.2051L342.891 25.2065C340.39 26.568 338.185 28.4132 336.404 30.6348Z" fill="#0f1b35"/>
<path d="M345.485 24.1599L345.042 23.1129C349.244 21.2867 353.839 20.5508 358.402 20.9735L358.288 22.1115C353.916 21.6993 349.511 22.4042 345.485 24.1599Z" fill="#0f1b35"/>
<path d="M343.335 32.0346L342.401 31.3973C345.143 27.695 349.133 25.1116 353.633 24.1255L353.85 25.2635C349.644 26.1819 345.911 28.586 343.335 32.0346Z" fill="#0f1b35"/>
<path d="M267.817 141.601C267.662 141.597 267.515 141.531 267.407 141.419L265.029 138.961C263.816 138.851 262.616 138.63 261.444 138.301L257.723 139.94C257.641 139.985 257.549 140.008 257.455 140.008C257.362 140.008 257.27 139.985 257.188 139.94L250.952 135.809C250.871 135.756 250.806 135.683 250.762 135.597C250.718 135.511 250.697 135.416 250.701 135.32V131.268C249.94 130.316 249.27 129.295 248.698 128.218L245.501 126.989C245.411 126.955 245.332 126.898 245.27 126.824C245.208 126.751 245.166 126.663 245.148 126.568L243.669 119.24C243.649 119.146 243.653 119.049 243.681 118.957C243.709 118.866 243.759 118.783 243.828 118.716L246.286 116.338C246.403 115.126 246.624 113.927 246.946 112.753L245.307 109.032C245.262 108.95 245.239 108.858 245.239 108.764C245.239 108.671 245.262 108.579 245.307 108.497L249.438 102.261C249.489 102.179 249.562 102.112 249.648 102.068C249.734 102.024 249.831 102.004 249.928 102.01L253.979 102.067C254.928 101.302 255.95 100.632 257.029 100.064L258.269 96.8668C258.302 96.7781 258.357 96.6991 258.428 96.6374C258.5 96.5757 258.586 96.5332 258.679 96.514L266.007 95.0346C266.101 95.0139 266.198 95.0177 266.29 95.0456C266.382 95.0735 266.465 95.1246 266.531 95.1939L268.909 97.652C270.126 97.7629 271.329 97.9838 272.505 98.312L276.215 96.6733C276.299 96.6285 276.393 96.605 276.488 96.605C276.584 96.605 276.678 96.6285 276.762 96.6733L282.986 100.804C283.065 100.859 283.13 100.932 283.176 101.017C283.221 101.102 283.246 101.197 283.248 101.293L283.18 105.345C283.945 106.296 284.619 107.318 285.194 108.395L288.381 109.635C288.469 109.668 288.548 109.722 288.61 109.794C288.672 109.866 288.714 109.952 288.733 110.045L290.224 117.373C290.242 117.467 290.236 117.563 290.209 117.655C290.181 117.746 290.132 117.829 290.065 117.897L287.595 120.287C287.482 121.495 287.261 122.691 286.935 123.86L288.574 127.581C288.619 127.665 288.642 127.759 288.642 127.854C288.642 127.95 288.619 128.043 288.574 128.127L284.5 134.307C284.447 134.384 284.375 134.447 284.292 134.491C284.209 134.534 284.116 134.557 284.022 134.557L279.959 134.5C279.007 135.255 277.99 135.925 276.921 136.503L275.68 139.701C275.647 139.791 275.59 139.871 275.516 139.933C275.443 139.995 275.354 140.036 275.259 140.054L267.931 141.601H267.817ZM261.41 137.049C261.463 137.039 261.517 137.039 261.569 137.049C262.798 137.407 264.06 137.64 265.336 137.744C265.473 137.76 265.6 137.819 265.7 137.914L267.976 140.304L274.69 138.95L275.897 135.832C275.953 135.706 276.049 135.602 276.17 135.536C277.307 134.948 278.378 134.242 279.368 133.431C279.472 133.342 279.607 133.297 279.743 133.305L283.692 133.362L287.47 127.672L285.877 124.053C285.832 123.928 285.832 123.791 285.877 123.666C286.229 122.436 286.461 121.175 286.571 119.9C286.583 119.762 286.643 119.633 286.742 119.536L289.132 117.26L287.777 110.545L284.671 109.339C284.537 109.29 284.427 109.193 284.363 109.066C283.773 107.931 283.067 106.859 282.258 105.868C282.177 105.764 282.133 105.636 282.133 105.504V101.544L276.443 97.7658L272.835 99.359C272.707 99.405 272.566 99.405 272.437 99.359C271.204 99.0028 269.938 98.7703 268.659 98.6648C268.522 98.6487 268.395 98.5888 268.295 98.4941L266.019 96.1043L259.305 97.4699L258.11 100.633C258.062 100.764 257.969 100.873 257.848 100.941C256.707 101.527 255.631 102.233 254.639 103.046C254.59 103.09 254.532 103.124 254.47 103.146C254.407 103.167 254.341 103.176 254.275 103.171L250.326 103.114L246.536 108.804L248.129 112.423C248.166 112.499 248.185 112.583 248.185 112.668C248.185 112.752 248.166 112.836 248.129 112.912C247.792 114.114 247.571 115.345 247.469 116.588C247.459 116.726 247.398 116.856 247.299 116.952L244.909 119.228L246.275 125.942L249.37 127.149C249.508 127.206 249.621 127.311 249.689 127.445C250.275 128.572 250.977 129.636 251.782 130.62C251.867 130.722 251.912 130.851 251.908 130.984V134.944L257.598 138.722L261.216 137.129C261.276 137.091 261.341 137.064 261.41 137.049ZM266.998 133.362C264.258 133.36 261.571 132.615 259.221 131.207C256.872 129.8 254.947 127.782 253.653 125.368C252.358 122.954 251.742 120.234 251.869 117.498C251.997 114.762 252.864 112.111 254.377 109.828C255.825 107.638 257.816 105.861 260.156 104.671C262.497 103.481 265.106 102.919 267.728 103.039C270.351 103.16 272.897 103.959 275.119 105.358C277.34 106.758 279.16 108.71 280.401 111.024C281.642 113.337 282.261 115.933 282.197 118.558C282.134 121.183 281.391 123.746 280.04 125.997C278.689 128.249 276.777 130.111 274.491 131.402C272.205 132.693 269.623 133.368 266.998 133.362ZM255.333 110.454C253.801 112.765 252.989 115.479 252.999 118.251C253.01 121.024 253.842 123.731 255.39 126.031C256.939 128.331 259.135 130.12 261.701 131.172C264.266 132.224 267.086 132.491 269.803 131.941C272.521 131.39 275.014 130.046 276.967 128.079C278.921 126.112 280.248 123.609 280.779 120.888C281.311 118.167 281.024 115.349 279.954 112.791C278.885 110.233 277.081 108.05 274.77 106.517C273.238 105.491 271.518 104.779 269.709 104.422C267.9 104.065 266.038 104.069 264.231 104.435C262.424 104.802 260.707 105.522 259.18 106.555C257.653 107.588 256.345 108.913 255.333 110.454Z" fill="white"/>
<path d="M484.594 166.239L466.728 163.826L478.54 75.2787L444.082 70.6357L360.496 147.587L356.103 180.51L428.127 190.228L424.531 217.165L458.989 221.808L462.586 194.883L480.452 197.295L484.594 166.239ZM394.215 154.04L438.323 113.834L432.269 159.172L394.215 154.04Z" fill="#0f1b35"/>
<path d="M448.52 220.965H448.372C448.224 220.938 448.094 220.853 448.008 220.729C447.923 220.606 447.89 220.453 447.917 220.305L474.546 74.7096C474.576 74.5634 474.662 74.4345 474.785 74.3497C474.908 74.2649 475.059 74.2308 475.206 74.2544C475.354 74.2821 475.484 74.367 475.57 74.4906C475.655 74.6143 475.688 74.7666 475.661 74.9144L449.089 220.499C449.063 220.63 448.992 220.749 448.888 220.834C448.784 220.919 448.654 220.965 448.52 220.965Z" fill="#263238"/>
<path d="M472.077 77.1564C472.067 77.4039 471.96 77.6377 471.779 77.8063C471.598 77.9749 471.357 78.0645 471.109 78.0554C470.862 78.0464 470.628 77.9394 470.459 77.758C470.291 77.5766 470.201 77.3356 470.21 77.0881C470.219 76.8406 470.326 76.6069 470.508 76.4383C470.689 76.2697 470.93 76.1801 471.178 76.1891C471.425 76.1982 471.659 76.3052 471.827 76.4866C471.996 76.668 472.086 76.9089 472.077 77.1564Z" fill="#263238"/>
<path d="M468.287 96.8439C468.28 97.0283 468.219 97.2065 468.111 97.356C468.003 97.5055 467.853 97.6196 467.68 97.6839C467.507 97.7481 467.318 97.7597 467.139 97.7171C466.959 97.6745 466.797 97.5796 466.671 97.4444C466.545 97.3093 466.463 97.1399 466.433 96.9578C466.404 96.7756 466.429 96.5889 466.506 96.4211C466.583 96.2533 466.707 96.112 466.864 96.0151C467.021 95.9182 467.204 95.87 467.388 95.8766C467.511 95.881 467.631 95.9095 467.743 95.9605C467.854 96.0115 467.955 96.0841 468.038 96.1739C468.122 96.2637 468.186 96.3691 468.229 96.4841C468.272 96.5991 468.292 96.7213 468.287 96.8439Z" fill="#263238"/>
<path d="M464.497 116.565C464.493 116.688 464.465 116.808 464.414 116.92C464.362 117.032 464.29 117.132 464.2 117.215C464.11 117.299 464.005 117.364 463.89 117.407C463.775 117.449 463.653 117.469 463.53 117.464C463.408 117.461 463.288 117.434 463.176 117.384C463.065 117.335 462.964 117.263 462.881 117.174C462.797 117.085 462.732 116.981 462.689 116.866C462.646 116.752 462.627 116.63 462.631 116.508C462.634 116.385 462.662 116.263 462.712 116.15C462.762 116.037 462.834 115.936 462.924 115.851C463.014 115.766 463.12 115.7 463.236 115.657C463.352 115.614 463.475 115.593 463.598 115.598C463.845 115.61 464.077 115.718 464.245 115.898C464.413 116.079 464.504 116.319 464.497 116.565Z" fill="#263238"/>
<path d="M457.032 137.049C457.007 137.278 456.898 137.489 456.727 137.642C456.556 137.795 456.334 137.88 456.105 137.88C455.875 137.88 455.654 137.795 455.482 137.642C455.311 137.489 455.203 137.278 455.177 137.049C455.163 136.919 455.176 136.787 455.216 136.662C455.256 136.537 455.322 136.422 455.41 136.324C455.497 136.226 455.604 136.148 455.724 136.095C455.844 136.041 455.974 136.013 456.105 136.013C456.236 136.013 456.366 136.041 456.486 136.095C456.605 136.148 456.713 136.226 456.8 136.324C456.888 136.422 456.954 136.537 456.994 136.662C457.034 136.787 457.047 136.919 457.032 137.049Z" fill="#263238"/>
<path d="M456.907 155.906C456.904 156.029 456.877 156.15 456.826 156.263C456.776 156.375 456.703 156.476 456.613 156.56C456.523 156.643 456.417 156.708 456.301 156.75C456.186 156.793 456.063 156.811 455.94 156.805C455.755 156.798 455.577 156.737 455.428 156.629C455.278 156.521 455.164 156.371 455.1 156.198C455.035 156.025 455.024 155.836 455.066 155.657C455.109 155.477 455.204 155.315 455.339 155.189C455.474 155.063 455.644 154.981 455.826 154.951C456.008 154.922 456.195 154.947 456.363 155.024C456.53 155.101 456.672 155.225 456.769 155.382C456.865 155.539 456.914 155.722 456.907 155.906Z" fill="#263238"/>
<path d="M453.118 175.593C453.113 175.778 453.053 175.958 452.947 176.109C452.84 176.26 452.69 176.376 452.518 176.442C452.345 176.508 452.156 176.521 451.976 176.48C451.796 176.438 451.632 176.344 451.505 176.209C451.378 176.075 451.294 175.905 451.264 175.723C451.234 175.54 451.258 175.353 451.335 175.184C451.411 175.016 451.536 174.874 451.694 174.777C451.851 174.679 452.034 174.631 452.219 174.637C452.464 174.646 452.696 174.752 452.864 174.931C453.033 175.11 453.124 175.348 453.118 175.593Z" fill="#263238"/>
<path d="M449.328 195.281C449.319 195.529 449.212 195.764 449.031 195.935C448.85 196.105 448.609 196.197 448.361 196.191C448.238 196.187 448.118 196.158 448.006 196.107C447.894 196.056 447.794 195.984 447.711 195.894C447.627 195.804 447.562 195.699 447.519 195.584C447.477 195.469 447.457 195.346 447.462 195.224C447.465 195.101 447.493 194.981 447.543 194.869C447.594 194.757 447.666 194.656 447.755 194.572C447.844 194.488 447.949 194.423 448.064 194.379C448.179 194.336 448.301 194.315 448.423 194.319C448.546 194.323 448.666 194.351 448.778 194.401C448.89 194.451 448.991 194.523 449.075 194.613C449.159 194.702 449.224 194.807 449.268 194.922C449.311 195.036 449.332 195.158 449.328 195.281Z" fill="#263238"/>
<path d="M445.527 214.98C445.52 215.164 445.459 215.342 445.351 215.492C445.243 215.641 445.093 215.755 444.92 215.82C444.747 215.884 444.559 215.895 444.379 215.853C444.199 215.81 444.037 215.715 443.911 215.58C443.785 215.445 443.703 215.276 443.673 215.093C443.644 214.911 443.669 214.725 443.746 214.557C443.823 214.389 443.947 214.248 444.104 214.151C444.261 214.054 444.444 214.006 444.628 214.012C444.751 214.015 444.872 214.043 444.985 214.093C445.097 214.144 445.198 214.216 445.282 214.306C445.365 214.396 445.43 214.502 445.472 214.618C445.515 214.734 445.533 214.857 445.527 214.98Z" fill="#263238"/>
<path d="M456.099 137.561C455.971 137.562 455.847 137.517 455.747 137.437C455.648 137.356 455.579 137.243 455.553 137.118C455.536 137.044 455.534 136.969 455.547 136.894C455.559 136.82 455.587 136.75 455.627 136.686C455.667 136.623 455.719 136.568 455.781 136.525C455.842 136.481 455.912 136.451 455.985 136.435L458.807 135.832C458.882 135.815 458.958 135.813 459.033 135.827C459.107 135.84 459.179 135.868 459.242 135.91C459.306 135.951 459.361 136.005 459.403 136.068C459.446 136.13 459.475 136.201 459.49 136.276C459.505 136.349 459.506 136.424 459.491 136.498C459.477 136.571 459.449 136.641 459.407 136.703C459.366 136.766 459.313 136.819 459.251 136.861C459.189 136.903 459.12 136.932 459.046 136.947L456.224 137.55L456.099 137.561Z" fill="#263238"/>
<path d="M465.533 127.08C464.191 130.562 463.051 134.119 462.119 137.732C461.265 141.749 461.22 150.739 461.22 150.739" fill="#263238"/>
<path d="M461.22 151.308C461.069 151.303 460.926 151.239 460.82 151.131C460.714 151.024 460.654 150.879 460.651 150.728C460.651 150.364 460.719 141.624 461.573 137.618C462.499 133.974 463.639 130.386 464.987 126.876C465.01 126.801 465.048 126.731 465.098 126.672C465.149 126.612 465.212 126.564 465.282 126.53C465.352 126.495 465.429 126.476 465.507 126.473C465.586 126.469 465.664 126.482 465.737 126.51C465.81 126.539 465.876 126.582 465.932 126.637C465.987 126.692 466.031 126.758 466.06 126.831C466.089 126.903 466.102 126.981 466.1 127.059C466.097 127.138 466.079 127.215 466.045 127.285C464.704 130.74 463.564 134.27 462.631 137.857C461.8 141.772 461.743 150.648 461.732 150.739C461.733 150.881 461.681 151.018 461.586 151.123C461.491 151.228 461.361 151.294 461.22 151.308Z" fill="#263238"/>
<path d="M253.148 249.529C254.73 224.038 251.828 177.687 299.749 183.833C351.107 190.399 336.416 250.462 336.416 250.462L253.148 249.529Z" fill="#263238"/>
<path d="M286.218 234.212C297.77 234.212 307.135 224.847 307.135 213.295C307.135 201.744 297.77 192.379 286.218 192.379C274.667 192.379 265.302 201.744 265.302 213.295C265.302 224.847 274.667 234.212 286.218 234.212Z" fill="white"/>
<path d="M288.972 192.413C279.06 190.729 268.488 198.023 267.43 205.42L306.702 209.039C305.314 200.607 296.824 193.756 288.972 192.413Z" fill="#263238"/>
<path d="M302.23 212.772C301.945 218.246 298.964 222.536 295.573 222.354C292.181 222.172 289.655 217.608 289.883 212.112C290.11 206.615 293.149 202.348 296.54 202.53C299.931 202.712 302.503 207.309 302.23 212.772Z" fill="#263238"/>
<path d="M286.218 235.35C281.856 235.35 277.592 234.056 273.966 231.633C270.339 229.21 267.512 225.765 265.843 221.735C264.173 217.705 263.737 213.271 264.588 208.993C265.439 204.715 267.539 200.785 270.624 197.701C273.708 194.616 277.638 192.516 281.916 191.665C286.194 190.814 290.628 191.25 294.658 192.92C298.688 194.589 302.133 197.416 304.556 201.043C306.979 204.669 308.273 208.933 308.273 213.295C308.267 219.143 305.941 224.749 301.807 228.884C297.672 233.018 292.066 235.344 286.218 235.35ZM286.218 193.528C282.306 193.528 278.482 194.689 275.229 196.862C271.976 199.036 269.441 202.126 267.944 205.741C266.448 209.355 266.057 213.333 266.821 217.17C267.585 221.006 269.47 224.531 272.237 227.296C275.004 230.062 278.529 231.945 282.367 232.707C286.204 233.468 290.181 233.075 293.795 231.576C297.409 230.078 300.497 227.541 302.669 224.287C304.841 221.033 305.999 217.208 305.997 213.295C305.991 208.053 303.905 203.027 300.197 199.321C296.488 195.615 291.461 193.531 286.218 193.528Z" fill="#0f1b35"/>
<path opacity="0.3" d="M330.578 248.892H330.441C330.368 248.876 330.299 248.845 330.238 248.802C330.177 248.759 330.125 248.704 330.086 248.64C330.046 248.576 330.02 248.505 330.009 248.431C329.998 248.357 330.001 248.282 330.02 248.209C330.02 248.061 333.684 232.63 329.918 217.028C329.881 216.877 329.907 216.718 329.988 216.586C330.069 216.453 330.199 216.359 330.35 216.322C330.501 216.286 330.66 216.311 330.792 216.393C330.925 216.474 331.019 216.604 331.056 216.755C334.891 232.687 331.192 248.323 331.158 248.471C331.124 248.597 331.048 248.708 330.942 248.784C330.837 248.861 330.708 248.899 330.578 248.892Z" fill="white"/>
<path opacity="0.3" d="M327.403 208.47C327.293 208.469 327.187 208.437 327.094 208.379C327.002 208.321 326.927 208.238 326.879 208.14C325.465 205.014 323.652 202.084 321.485 199.423C321.391 199.307 321.346 199.158 321.361 199.008C321.376 198.859 321.449 198.722 321.565 198.627C321.623 198.578 321.69 198.542 321.762 198.519C321.834 198.497 321.91 198.49 321.985 198.497C322.061 198.504 322.134 198.527 322.2 198.563C322.266 198.599 322.325 198.647 322.373 198.706C324.593 201.444 326.455 204.454 327.915 207.662C327.947 207.729 327.966 207.802 327.969 207.877C327.973 207.951 327.962 208.025 327.937 208.095C327.911 208.165 327.872 208.23 327.821 208.284C327.771 208.339 327.709 208.383 327.642 208.413C327.567 208.448 327.485 208.468 327.403 208.47Z" fill="white"/>
<path d="M146.495 369.11H146.074C144.565 369.068 143.134 368.428 142.097 367.331C141.06 366.234 140.501 364.77 140.543 363.261C140.585 361.752 141.225 360.321 142.322 359.284C143.419 358.247 144.883 357.688 146.392 357.73H146.495C149.784 357.73 157.693 353.736 174.239 327.653C174.678 326.96 175.262 326.371 175.951 325.925C176.639 325.479 177.416 325.187 178.227 325.069C179.039 324.951 179.867 325.01 180.653 325.242C181.44 325.474 182.168 325.873 182.786 326.413C195.78 337.583 209.952 347.306 225.051 355.409C225.75 355.727 226.377 356.183 226.895 356.749C227.413 357.316 227.811 357.981 228.065 358.706C228.319 359.43 228.423 360.198 228.373 360.964C228.322 361.73 228.117 362.478 227.77 363.162C227.422 363.847 226.94 364.454 226.352 364.948C225.764 365.441 225.082 365.81 224.347 366.033C223.613 366.256 222.841 366.328 222.078 366.245C221.315 366.161 220.576 365.925 219.907 365.548C205.874 358.092 192.609 349.271 180.305 339.215C166.433 360.097 156.145 369.11 146.495 369.11Z" fill="#263238"/>
<path d="M181.704 325.388H181.215C180.321 325.259 179.514 324.78 178.973 324.057C178.431 323.334 178.198 322.425 178.325 321.531C179.133 315.841 178.131 294.64 170.95 278.139C170.632 277.409 170.578 276.592 170.798 275.827C171.019 275.062 171.499 274.399 172.157 273.951C187.747 263.333 220.954 262.059 222.365 262.013C222.814 261.998 223.26 262.072 223.68 262.229C224.1 262.387 224.485 262.626 224.813 262.933C225.14 263.239 225.404 263.607 225.59 264.015C225.775 264.424 225.878 264.865 225.893 265.313C225.908 265.762 225.834 266.209 225.677 266.628C225.519 267.048 225.28 267.433 224.974 267.761C224.667 268.088 224.299 268.352 223.891 268.538C223.482 268.723 223.041 268.826 222.593 268.841C222.286 268.841 193.255 269.979 178.347 278.173C184.697 294.605 186.143 315.078 185.084 322.486C184.962 323.295 184.553 324.032 183.933 324.565C183.313 325.097 182.522 325.389 181.704 325.388Z" fill="#263238"/>
<path d="M187.44 320.973C185.164 315.613 174.922 316.216 168.925 320.814C165.716 323.26 161.368 330.646 160.959 333.332C160.822 333.97 160.843 334.632 161.018 335.26C161.194 335.888 161.52 336.465 161.968 336.94C162.415 337.414 162.972 337.773 163.589 337.985C164.206 338.197 164.866 338.256 165.511 338.157C169.437 337.815 174.82 332.114 174.82 332.114C171.235 335.63 175.867 338.111 182.786 333.024C186.564 330.191 189.978 326.97 187.44 320.973Z" fill="#0f1b35"/>
<path d="M383.176 251.031C383.123 251.043 383.069 251.043 383.017 251.031C382.944 251.012 382.876 250.978 382.817 250.931C382.758 250.885 382.709 250.827 382.673 250.761C382.637 250.695 382.614 250.623 382.607 250.548C382.599 250.473 382.607 250.398 382.63 250.326C384.143 245.046 385.793 241.825 387.967 240.084C387.626 238.86 387.69 237.559 388.149 236.374C388.679 234.991 389.615 233.801 390.835 232.96C390.503 232.602 390.268 232.166 390.15 231.692C390.033 231.219 390.037 230.723 390.163 230.252C390.575 228.826 391.428 227.567 392.599 226.655C392.176 226.183 391.945 225.571 391.95 224.937C391.95 221.523 398.22 216.379 405.333 215.401C405.484 215.38 405.637 215.419 405.758 215.511C405.88 215.603 405.96 215.739 405.981 215.89C406.003 216.041 405.963 216.194 405.871 216.316C405.779 216.437 405.643 216.518 405.492 216.539C398.732 217.46 393.065 222.354 393.088 224.937C393.086 225.322 393.232 225.693 393.498 225.973C395.028 224.935 396.751 224.212 398.564 223.846C400.377 223.481 402.245 223.48 404.058 223.845C407.552 224.516 408.974 225.256 408.815 226.314C408.496 228.306 401.065 228.727 396.081 228.135C395.188 228.054 394.319 227.803 393.52 227.395C392.447 228.159 391.649 229.248 391.244 230.502C391.147 230.834 391.147 231.186 391.246 231.518C391.345 231.849 391.538 232.144 391.802 232.368C393.919 231.23 396.889 230.821 400.815 231.685C405.97 232.823 406.164 233.449 406.289 233.825C406.329 233.958 406.332 234.099 406.298 234.233C406.264 234.367 406.194 234.49 406.095 234.587C405.014 235.725 397.105 235.19 393.133 234.212C392.654 234.102 392.191 233.93 391.756 233.7C390.581 234.414 389.676 235.499 389.185 236.784C388.856 237.615 388.765 238.521 388.923 239.401C389.125 239.28 389.334 239.17 389.549 239.071C391.904 237.933 394.749 238.138 398.266 239.64C400.542 240.63 401.68 241.518 401.794 242.417C401.799 242.647 401.741 242.875 401.627 243.075C401.512 243.276 401.346 243.442 401.145 243.555C399.404 244.693 393.327 244.533 390.163 242.849C389.436 242.454 388.83 241.868 388.411 241.154C386.556 242.861 385.054 245.899 383.688 250.667C383.647 250.771 383.576 250.86 383.485 250.925C383.395 250.989 383.287 251.026 383.176 251.031ZM389.344 240.414C389.661 241.003 390.143 241.485 390.732 241.802C393.304 243.168 398.357 243.475 400.246 242.713C400.633 242.553 400.69 242.428 400.69 242.428C400.69 242.428 400.633 241.791 397.845 240.596C394.658 239.23 392.155 239.037 390.072 240.004C389.821 240.125 389.578 240.262 389.344 240.414ZM393.145 232.937L393.429 233.017C397.135 233.871 400.949 234.159 404.741 233.87C403.396 233.371 402.01 232.991 400.599 232.732C398.148 232.068 395.556 232.14 393.145 232.937ZM394.579 226.542C395.104 226.73 395.651 226.852 396.206 226.906C401.896 227.577 406.892 226.792 407.586 226.075C407.393 225.904 406.63 225.415 403.808 224.88C400.632 224.247 397.334 224.841 394.579 226.542Z" fill="#263238"/>
<path d="M235.031 367.21C235.782 366.971 235.532 366.243 234.69 366.243H219.281C189.944 363.136 169.448 367.301 182.365 368.28C195.281 369.258 181.454 369.053 172.02 372.627C162.586 376.2 242.178 377.099 249.404 372.627C256.05 368.507 224.63 370.544 235.031 367.21Z" fill="#263238"/>
<path d="M345.349 371.75L211.292 367.301L205.728 237.319L364.035 240.858L345.349 371.75Z" fill="#0f1b35"/>
<path d="M253.148 369.258C253.005 369.259 252.866 369.205 252.761 369.108C252.656 369.011 252.591 368.878 252.579 368.735L241.836 238.183C241.827 238.033 241.876 237.885 241.974 237.77C242.071 237.656 242.21 237.583 242.36 237.569C242.51 237.562 242.656 237.612 242.77 237.71C242.884 237.807 242.957 237.944 242.974 238.092L253.774 368.644C253.78 368.719 253.772 368.794 253.749 368.865C253.726 368.937 253.689 369.003 253.64 369.06C253.591 369.117 253.532 369.164 253.465 369.198C253.398 369.232 253.325 369.253 253.25 369.258H253.148Z" fill="#263238"/>
<path d="M345.349 371.75L381.378 366.265L392.724 245.398L364.035 240.858L345.349 371.75Z" fill="#0f1b35"/>
<path opacity="0.2" d="M345.349 371.75L381.378 366.265L392.724 245.398L364.035 240.858L345.349 371.75Z" fill="black"/>
<path d="M223.313 341.795L220.013 264.558C219.931 262.65 220.242 260.746 220.926 258.963C221.61 257.18 222.652 255.556 223.989 254.192C225.325 252.827 226.927 251.752 228.696 251.032C230.465 250.311 232.362 249.961 234.272 250.003L334.484 252.279C336.457 252.324 338.399 252.786 340.18 253.636C341.962 254.486 343.543 255.704 344.819 257.209C346.096 258.715 347.038 260.474 347.585 262.37C348.132 264.267 348.271 266.257 347.992 268.211L336.885 345.982C336.405 349.389 334.684 352.497 332.052 354.713C329.421 356.929 326.064 358.095 322.626 357.988L236.832 355.143C233.31 355.035 229.96 353.598 227.452 351.123C224.945 348.647 223.466 345.315 223.313 341.795Z" fill="#263238"/>
<g clip-path="url(#clip0_1926_15904)">
<path d="M298.984 262.648C298.61 262.998 297.067 264.417 295.554 265.807C294.041 267.196 292.541 268.574 292.222 268.87C291.904 269.161 291.065 269.939 290.354 270.586C289.65 271.234 288.848 271.97 288.578 272.219C288.309 272.469 287.512 273.205 286.802 273.852C286.098 274.499 285.295 275.235 285.026 275.485C284.756 275.734 283.96 276.47 283.25 277.118C282.545 277.771 281.743 278.501 281.473 278.756C281.204 279.006 279.869 280.235 278.503 281.482C277.137 282.734 275.802 283.963 275.532 284.213C275.263 284.462 274.467 285.199 273.756 285.846C273.052 286.493 272.25 287.229 271.98 287.478C271.711 287.728 270.914 288.464 270.204 289.111C269.5 289.758 268.697 290.495 268.428 290.744C268.158 290.993 267.362 291.73 266.652 292.377C265.947 293.03 265.145 293.76 264.875 294.016C264.606 294.265 263.271 295.494 261.905 296.741C260.539 297.993 259.204 299.223 258.934 299.472C258.665 299.721 257.869 300.458 257.158 301.105C256.454 301.752 255.652 302.488 255.382 302.738C255.113 302.987 254.402 303.64 253.808 304.192L252.718 305.19L252.513 314.534L252.309 323.885L257.947 324.009L263.586 324.132L263.736 317.272L263.886 310.413L266.783 307.753C268.37 306.286 269.925 304.861 270.225 304.582C270.532 304.297 271.358 303.537 272.063 302.89C272.773 302.243 273.569 301.507 273.839 301.257C274.109 301.008 274.911 300.272 275.615 299.624C276.325 298.977 277.122 298.241 277.391 297.985C277.661 297.736 279.798 295.777 282.138 293.628C284.478 291.478 286.615 289.513 286.885 289.264C287.154 289.014 287.956 288.278 288.661 287.631C289.371 286.984 290.167 286.247 290.437 285.998C290.706 285.749 291.521 285 292.244 284.335C292.966 283.67 293.646 283.041 293.757 282.946C293.867 282.845 295.177 281.64 296.678 280.269L299.397 277.775L299.576 269.889C299.677 265.557 299.736 262.008 299.712 262.007C299.682 262.013 299.358 262.297 298.984 262.648Z" fill="#DCFDF8"/>
<path d="M287.701 299.111C287.677 299.129 287.589 302.3 287.505 306.158L287.352 313.164L280.393 313.011L273.435 312.859L273.309 318.601L273.184 324.342L280.142 324.495L287.1 324.647L286.946 331.695L286.792 338.743L292.43 338.867L298.069 338.99L298.223 331.942L298.378 324.894L305.336 325.046L312.294 325.199L312.42 319.457L312.546 313.715L305.587 313.563L298.629 313.41L298.783 306.362L298.938 299.314L293.341 299.192C290.258 299.124 287.72 299.087 287.701 299.111Z" fill="#DCFDF8"/>
</g>
<path d="M143.103 374.516L135.98 371.113L129.63 340.194L133.078 336.404L143.103 374.516Z" fill="#0f1b35"/>
<path d="M143.103 374.516L152.56 368.985L144.458 343.517L133.078 336.404L143.103 374.516Z" fill="#0f1b35"/>
<path opacity="0.2" d="M143.103 374.516L152.56 368.985L144.458 343.517L133.078 336.404L143.103 374.516Z" fill="black"/>
<path d="M298.156 380.138H297.371C295.862 380.097 294.431 379.458 293.392 378.362C292.354 377.266 291.794 375.803 291.834 374.294C291.875 372.785 292.514 371.354 293.61 370.315C294.705 369.277 296.169 368.717 297.678 368.758C306.441 369.042 324.99 363.659 335.596 353.372C336.237 352.744 337.016 352.276 337.872 352.006C355.841 346.612 362.521 357.503 362.794 357.969L353.008 363.762C353.042 363.834 353.084 363.903 353.133 363.967C353.03 363.819 350.481 360.553 342.379 362.555C329.075 374.687 308.66 380.138 298.156 380.138Z" fill="#263238"/>
<path d="M297.462 387.694L276.739 386.397L275.112 348.183L302.958 349.218L297.462 387.694Z" fill="#0f1b35"/>
<path d="M297.462 387.694L302.31 382.869L305.314 359.05L302.958 349.218L297.462 387.694Z" fill="#0f1b35"/>
<path opacity="0.2" d="M297.462 387.694L302.31 382.869L305.314 359.05L302.958 349.218L297.462 387.694Z" fill="black"/>
<path d="M417.544 373.23C416.8 373.229 416.076 372.985 415.484 372.536C403.649 363.546 387.66 347.579 381.526 332.182C381.434 331.959 381.369 331.726 381.332 331.488C378.34 313.69 375.483 276.238 375.358 274.656C375.324 274.208 375.379 273.757 375.52 273.33C375.66 272.903 375.884 272.508 376.177 272.167C376.769 271.479 377.61 271.054 378.516 270.986C379.421 270.918 380.317 271.213 381.005 271.805C381.693 272.397 382.118 273.239 382.186 274.144C382.186 274.52 385.111 312.336 388.024 329.986C394.146 344.962 410.784 360.336 419.638 367.096C420.208 367.529 420.627 368.129 420.838 368.813C421.048 369.497 421.038 370.23 420.809 370.908C420.58 371.586 420.144 372.175 419.562 372.592C418.98 373.008 418.282 373.232 417.566 373.23H417.544Z" fill="#263238"/>
<path d="M433.328 374.948C430.687 374.948 427.694 373.753 424.428 371.398C423.695 370.866 423.203 370.066 423.06 369.171C422.917 368.277 423.135 367.363 423.666 366.629C424.197 365.896 424.998 365.404 425.892 365.261C426.786 365.118 427.701 365.336 428.434 365.867C431.256 367.904 432.793 368.143 433.328 368.143C434.233 368.143 435.101 368.503 435.742 369.143C436.382 369.783 436.742 370.652 436.742 371.557C436.742 372.462 436.382 373.331 435.742 373.971C435.101 374.611 434.233 374.971 433.328 374.971V374.948Z" fill="#263238"/>
<path d="M425.384 371.295C429.037 360.45 444.014 362.59 449.18 364.206C453.593 365.487 457.826 367.322 461.778 369.668C464.566 371.489 464.611 374.55 460.89 376.291C456.338 378.431 444.776 376.53 444.776 376.53C450.739 379.136 444.776 383.358 434.295 379.216C430.892 377.873 424.099 375.278 425.384 371.295Z" fill="#0f1b35"/>
<path d="M389.037 279.299C387.682 288.517 380.047 295.311 373.833 294.401C367.62 293.49 367.369 285.297 368.723 276.033C370.078 266.77 372.536 260.101 378.749 261.012C384.963 261.922 390.391 270.116 389.037 279.299Z" fill="#263238"/>
<path d="M238.843 242.542C239.359 242.542 239.777 242.124 239.777 241.609C239.777 241.093 239.359 240.676 238.843 240.676C238.328 240.676 237.91 241.093 237.91 241.609C237.91 242.124 238.328 242.542 238.843 242.542Z" fill="#263238"/>
<path d="M248.323 248.323C248.323 248.508 248.268 248.688 248.166 248.841C248.063 248.995 247.917 249.114 247.747 249.185C247.576 249.256 247.389 249.274 247.208 249.238C247.027 249.202 246.86 249.113 246.73 248.983C246.599 248.852 246.511 248.686 246.475 248.505C246.439 248.324 246.457 248.136 246.528 247.966C246.598 247.795 246.718 247.65 246.871 247.547C247.025 247.445 247.205 247.39 247.39 247.39C247.637 247.39 247.875 247.488 248.05 247.663C248.225 247.838 248.323 248.076 248.323 248.323Z" fill="#263238"/>
<path d="M249.37 358.595C249.37 358.78 249.315 358.96 249.213 359.114C249.11 359.267 248.964 359.387 248.794 359.457C248.623 359.528 248.436 359.546 248.255 359.51C248.074 359.474 247.907 359.386 247.777 359.255C247.646 359.125 247.558 358.958 247.522 358.777C247.486 358.596 247.504 358.409 247.575 358.238C247.645 358.068 247.765 357.922 247.918 357.819C248.072 357.717 248.252 357.662 248.437 357.662C248.684 357.662 248.922 357.76 249.097 357.935C249.272 358.11 249.37 358.348 249.37 358.595Z" fill="#263238"/>
<path d="M257.916 365.321C257.916 365.505 257.862 365.686 257.759 365.839C257.657 365.993 257.511 366.112 257.34 366.183C257.17 366.254 256.982 366.272 256.801 366.236C256.62 366.2 256.454 366.111 256.323 365.981C256.193 365.85 256.104 365.684 256.068 365.503C256.032 365.322 256.05 365.134 256.121 364.964C256.192 364.793 256.311 364.647 256.465 364.545C256.618 364.442 256.799 364.388 256.983 364.388C257.231 364.388 257.468 364.486 257.643 364.661C257.818 364.836 257.916 365.073 257.916 365.321Z" fill="#263238"/>
<path d="M93.8964 376.507C92.2581 376.431 90.6579 375.987 89.2141 375.209C87.7703 374.431 86.5197 373.338 85.5548 372.012C85.5075 371.951 85.4731 371.881 85.4538 371.806C85.4344 371.732 85.4304 371.654 85.4421 371.577C85.4538 371.501 85.4809 371.428 85.5218 371.362C85.5626 371.297 85.6164 371.24 85.6798 371.196C85.7432 371.152 85.8149 371.122 85.8905 371.106C85.9662 371.091 86.0442 371.091 86.1198 371.106C86.1954 371.122 86.267 371.153 86.3303 371.197C86.3936 371.241 86.4473 371.298 86.488 371.364C88.6161 374.436 93.316 376.063 95.3644 375.096C95.5696 375.009 95.7524 374.877 95.8993 374.709C94.8642 374.254 93.9573 373.55 93.2587 372.661C92.56 371.772 92.0912 370.724 91.8935 369.611C91.6318 368.166 91.4269 366.197 92.6104 365.947C94.2492 365.583 96.3886 369.531 97.1624 372.524C97.3026 373.02 97.3527 373.536 97.3104 374.049C97.9668 374.245 98.6571 374.299 99.336 374.209C99.6419 374.185 99.9396 374.098 100.21 373.953C100.48 373.808 100.718 373.608 100.906 373.366C100.158 372.801 99.5363 372.084 99.0833 371.263C98.6303 370.441 98.3558 369.533 98.2777 368.598C97.8452 365.48 98.1753 364.945 98.5167 364.672C98.6273 364.587 98.7593 364.535 98.898 364.521C99.0366 364.507 99.1765 364.532 99.3019 364.592C100.52 365.105 101.988 369.52 102.272 372.024C102.306 372.284 102.306 372.548 102.272 372.809C102.763 372.997 103.283 373.098 103.808 373.105C104.773 373.142 105.728 372.893 106.551 372.388C106.392 372.285 106.244 372.172 106.096 372.058C104.958 371.045 104.434 369.429 104.639 367.13C104.798 365.344 105.197 364.365 105.914 364.058C106.145 363.965 106.398 363.941 106.643 363.99C106.887 364.038 107.112 364.157 107.291 364.331C108.059 365.179 108.633 366.184 108.973 367.277C109.313 368.37 109.411 369.524 109.259 370.658C109.161 371.13 108.963 371.576 108.679 371.967C110.773 372.331 113.709 371.739 116.247 371.113C116.321 371.095 116.399 371.092 116.475 371.104C116.551 371.116 116.624 371.143 116.689 371.183C116.755 371.223 116.812 371.276 116.857 371.338C116.902 371.4 116.934 371.471 116.952 371.546C116.97 371.62 116.973 371.698 116.961 371.774C116.949 371.85 116.922 371.922 116.882 371.988C116.842 372.053 116.789 372.11 116.727 372.156C116.665 372.201 116.595 372.233 116.52 372.251C113.436 373.014 110.113 373.64 107.769 372.957C106.624 373.827 105.223 374.291 103.786 374.277C103.148 374.268 102.516 374.149 101.919 373.924C101.655 374.333 101.299 374.677 100.881 374.927C100.463 375.178 99.9926 375.329 99.5067 375.369C98.6513 375.479 97.7823 375.406 96.9576 375.153C96.6921 375.6 96.2945 375.954 95.8196 376.166C95.2092 376.412 94.5542 376.528 93.8964 376.507ZM92.9177 367.085C92.7603 367.858 92.7915 368.659 93.0087 369.418C93.1693 370.328 93.5469 371.185 94.1095 371.918C94.6721 372.651 95.4031 373.238 96.2407 373.628C96.2247 373.358 96.1789 373.091 96.1041 372.832C95.2165 369.577 93.5095 367.335 92.9177 367.085ZM99.2564 366.095C99.2638 366.88 99.3284 367.663 99.4498 368.439C99.5753 369.826 100.188 371.125 101.18 372.103C100.9 370.002 100.248 367.968 99.2564 366.095ZM106.414 365.105C106.414 365.105 105.982 365.321 105.823 367.221C105.663 369.122 105.993 370.43 106.881 371.193C107.091 371.363 107.32 371.508 107.564 371.625C107.863 371.305 108.075 370.913 108.178 370.487C108.381 368.696 107.897 366.895 106.824 365.446C106.585 365.15 106.449 365.105 106.414 365.105Z" fill="#263238"/>
<path d="M260.454 385.111L263.538 379.762L260.454 374.413H257.154L259.02 379.762L257.154 385.111H260.454Z" fill="#263238"/>
<path d="M257.37 382.55C256.99 382.574 256.608 382.52 256.25 382.392C255.891 382.263 255.563 382.062 255.285 381.801C255.007 381.54 254.785 381.225 254.634 380.876C254.482 380.526 254.404 380.149 254.404 379.768C254.404 379.387 254.482 379.009 254.634 378.66C254.785 378.31 255.007 377.995 255.285 377.734C255.563 377.473 255.891 377.272 256.25 377.144C256.608 377.015 256.99 376.961 257.37 376.985L252.135 375.938L250.736 380.172L253.08 383.745L257.37 382.55Z" fill="#263238"/>
<path d="M257.825 374.413H251.646L248.562 379.762L251.646 385.111H257.825L260.909 379.762L257.825 374.413ZM254.741 382.55C254.189 382.552 253.649 382.391 253.189 382.086C252.729 381.781 252.37 381.346 252.157 380.837C251.945 380.328 251.888 379.767 251.994 379.225C252.1 378.683 252.365 378.186 252.754 377.795C253.144 377.403 253.641 377.137 254.182 377.028C254.723 376.92 255.284 376.974 255.794 377.185C256.304 377.396 256.74 377.753 257.047 378.212C257.354 378.671 257.518 379.21 257.518 379.762C257.518 380.499 257.226 381.207 256.705 381.729C256.185 382.252 255.479 382.547 254.741 382.55Z" fill="#0f1b35"/>
<path d="M475.559 374.049L473.271 370.078L475.559 366.106H478.006L476.629 370.078L478.006 374.049H475.559Z" fill="#0f1b35"/>
<path d="M477.846 372.149C478.13 372.17 478.416 372.132 478.685 372.038C478.954 371.944 479.2 371.795 479.409 371.601C479.618 371.407 479.784 371.172 479.898 370.911C480.012 370.65 480.071 370.368 480.071 370.083C480.071 369.798 480.012 369.516 479.898 369.255C479.784 368.994 479.618 368.759 479.409 368.565C479.2 368.372 478.954 368.223 478.685 368.129C478.416 368.034 478.13 367.997 477.846 368.018L481.738 367.244L482.774 370.385L481.044 373.036L477.846 372.149Z" fill="#0f1b35"/>
<path d="M477.516 366.106H482.068L484.344 370.078L482.068 374.049H477.516L475.24 370.078L477.516 366.106ZM479.792 372.149C480.202 372.151 480.604 372.031 480.946 371.805C481.288 371.579 481.555 371.256 481.714 370.878C481.872 370.5 481.915 370.083 481.836 369.681C481.758 369.278 481.561 368.908 481.272 368.617C480.983 368.326 480.614 368.128 480.212 368.047C479.81 367.966 479.393 368.007 479.014 368.163C478.635 368.319 478.31 368.585 478.082 368.926C477.854 369.267 477.732 369.667 477.732 370.078C477.731 370.35 477.784 370.62 477.887 370.872C477.991 371.124 478.143 371.353 478.336 371.545C478.528 371.738 478.757 371.891 479.009 371.994C479.261 372.098 479.531 372.15 479.804 372.149H479.792Z" fill="#263238"/>
<path d="M390.334 379.329H395.478C396.122 379.326 396.738 379.069 397.192 378.612C397.647 378.156 397.902 377.538 397.902 376.894C397.902 376.25 397.647 375.633 397.192 375.176C396.738 374.72 396.122 374.462 395.478 374.459H390.334C389.688 374.459 389.069 374.715 388.612 375.172C388.155 375.629 387.899 376.248 387.899 376.894C387.899 377.54 388.155 378.159 388.612 378.616C389.069 379.073 389.688 379.329 390.334 379.329Z" fill="#263238"/>
<path d="M382.061 374.732C382.538 373.864 383.259 373.154 384.135 372.691C385.011 372.228 386.003 372.031 386.989 372.125C387.975 372.219 388.913 372.599 389.685 373.219C390.458 373.839 391.032 374.672 391.337 375.615C391.642 376.557 391.665 377.569 391.402 378.524C391.139 379.479 390.602 380.336 389.858 380.99C389.114 381.644 388.194 382.066 387.213 382.204C386.232 382.341 385.232 382.189 384.337 381.765C383.106 381.13 382.176 380.035 381.75 378.717C381.323 377.4 381.435 375.967 382.061 374.732Z" fill="#0f1b35"/>
<path d="M383.449 381.763L384.859 382.428L389.76 372.032L388.35 371.367L383.449 381.763Z" fill="#263238"/>
<defs>
<clipPath id="clip0_1926_15904">
<rect width="60" height="77" fill="white" transform="translate(253.685 261) rotate(1.25408)"/>
</clipPath>
</defs>
</svg>
