<svg width="110" height="36" viewBox="0 0 110 36" fill="none" xmlns="http://www.w3.org/2000/svg">
<g clip-path="url(#clip0_1835_18902)">
<mask id="mask0_1835_18902" style="mask-type:luminance" maskUnits="userSpaceOnUse" x="0" y="0" width="110" height="36">
<path d="M110 0H0V36H110V0Z" fill="white"/>
</mask>
<g mask="url(#mask0_1835_18902)">
<path d="M46.6843 1.43132C45.8483 2.22289 44.2863 3.6759 43.2303 4.66265C42.1743 5.66024 39.3033 8.33855 36.8503 10.6265C34.3973 12.9144 31.9993 15.159 31.5153 15.6144C31.0313 16.0699 29.7773 17.241 28.7433 18.2169L26.8403 19.9843V24.3V28.6265H29.4803H32.1203V25.5036V22.3699L32.8133 21.7301C33.1873 21.3831 34.3863 20.2662 35.4753 19.247C36.5643 18.2277 38.5003 16.4169 39.7653 15.235C41.0413 14.053 42.2843 12.8819 42.5373 12.6433C42.8013 12.394 44.2203 11.0711 45.6943 9.70478L48.3783 7.21084L48.3893 3.6C48.4003 1.62651 48.3563 0 48.3123 0C48.2573 0 47.5313 0.639759 46.6843 1.43132Z" fill="#5BEBD4"/>
<path d="M43.0105 20.1144V23.3132H39.7655H36.5206L36.5425 25.9373L36.5755 28.5723L39.7875 28.6048L43.0105 28.6265L43.0325 31.8036L43.0655 34.9699H45.7055H48.3455L48.3785 31.8036L48.4005 28.6265L51.6235 28.6048L54.8355 28.5723L54.8685 25.9373L54.8905 23.3132H51.6455H48.4005V20.1144V16.9156H45.7055H43.0105V20.1144Z" fill="#5BEBD4"/>
<path d="M0 19.3121V35.6856L8.558 35.6422C17.996 35.588 17.985 35.588 19.899 34.8832C22.242 34.0157 23.771 32.3567 24.442 29.9603C24.662 29.2012 24.684 28.8434 24.684 26.2952C24.695 23.1506 24.64 22.7603 23.925 21.2748C23.463 20.2988 22.649 19.4856 21.637 18.9759L20.922 18.6072L21.406 18.3253C22.561 17.6748 23.584 16.3084 24.057 14.8012C24.343 13.8687 24.343 9.74821 24.057 8.62053C23.43 6.16991 21.648 4.33738 19.063 3.48075C17.49 2.96027 16.885 2.92773 8.173 2.92773H0V19.3121ZM16.412 7.66631C17.743 8.1651 18.513 8.93498 18.865 10.1278C19.019 10.6265 19.041 11.082 19.008 12.2422C18.975 13.5976 18.942 13.7711 18.667 14.335C18.084 15.4952 16.973 16.2217 15.378 16.482C14.982 16.5362 12.65 16.5904 9.988 16.5904H5.28V11.9711V7.36266L10.538 7.39521C15.598 7.42776 15.807 7.43856 16.412 7.66631ZM16.28 21.1012C17.688 21.4157 18.832 22.3808 19.206 23.5843C19.437 24.3217 19.525 26.5229 19.382 27.6181C19.228 28.735 18.887 29.4181 18.15 30.0687C17.534 30.6217 16.764 30.947 15.708 31.1205C15.312 31.1748 12.925 31.229 10.153 31.229H5.28V26.0783V20.9278H10.406C14.652 20.9278 15.653 20.9603 16.28 21.1012Z" fill="white"/>
<path d="M79.6946 10.3664C76.6803 10.7893 75.0525 11.9603 74.25 14.2592C73.8867 15.311 73.7766 16.9483 73.8314 20.8411C73.8868 24.0833 73.9089 24.5387 74.1178 25.2978C74.7114 27.4555 76.01 28.7134 78.32 29.3531C78.9467 29.5267 79.4857 29.5483 82.72 29.5483C85.8989 29.5483 86.5035 29.5267 87.12 29.3531C89.3746 28.7568 90.75 27.4339 91.3768 25.2652C91.5525 24.6363 91.5746 24.0941 91.5746 20.0062C91.5746 15.9941 91.5525 15.3652 91.3768 14.7471C90.9035 13.023 89.9357 11.7978 88.5057 11.1146C87.1089 10.4531 86.6467 10.3881 83.16 10.3556C81.4325 10.3339 79.8814 10.3448 79.6946 10.3664ZM85.9978 13.8688C86.68 14.1724 87.2514 14.7797 87.5157 15.4953C87.6803 15.9182 87.7135 16.5038 87.7578 19.5182C87.8014 23.4435 87.7357 24.1375 87.2189 25.0267C86.5803 26.1219 85.5689 26.458 82.8189 26.458C80.1235 26.458 79.31 26.2628 78.5068 25.3844C77.8025 24.6146 77.7367 24.2242 77.6814 20.4724C77.66 18.3471 77.6814 16.8616 77.7589 16.3736C77.99 14.9423 78.5835 14.1724 79.7825 13.7495C80.2778 13.576 80.6735 13.5543 82.8846 13.576C85.2825 13.6086 85.4478 13.6194 85.9978 13.8688Z" fill="white"/>
<path d="M54.7801 10.6048C54.7801 10.6591 56.3201 14.6494 58.2011 19.4747C60.0821 24.3 61.7211 28.5073 61.8421 28.8108C62.0401 29.353 62.0731 29.3855 62.4471 29.3855C62.7661 29.3855 62.8211 29.4181 62.7771 29.5807C62.7551 29.6783 62.1501 31.1422 61.4461 32.8229C60.7421 34.5145 60.1701 35.9133 60.1701 35.9458C60.1701 35.9783 61.0611 35.9892 62.1611 35.9783L64.1411 35.9458L69.0141 23.4759C71.6981 16.6121 73.92 10.8976 73.9643 10.7566L74.0411 10.5181H72.0721C70.5871 10.5181 70.0811 10.5506 70.0371 10.6482C69.9821 10.7892 64.6251 24.4735 64.4711 24.8747C64.4161 25.0048 63.5141 22.847 61.5341 17.794L58.6851 10.5181H56.7381C55.6601 10.5181 54.7801 10.5615 54.7801 10.6048Z" fill="white"/>
<path d="M93.3021 17.4795C93.3457 24.2349 93.3568 24.4735 93.5878 25.2976C94.2368 27.6073 95.7332 28.9518 98.2189 29.4398C99.0111 29.6024 99.6046 29.6241 102.344 29.5699C105.468 29.5157 106.832 29.3964 109.01 28.9952L110 28.8217V19.6699V10.5181H108.13H106.26V18.3145V26.1217L105.633 26.2085C105.281 26.2518 103.785 26.2952 102.3 26.2952C99.6932 26.2952 99.5832 26.2844 99.0221 26.0349C98.6811 25.8832 98.2632 25.5687 98.01 25.2867C97.1846 24.3651 97.1957 24.5061 97.1521 17.1L97.1189 10.5181H95.1936H93.2689L93.3021 17.4795Z" fill="white"/>
</g>
</g>
<defs>
<clipPath id="clip0_1835_18902">
<rect width="110" height="36" fill="white"/>
</clipPath>
</defs>
</svg>
