<svg width="53" height="35" viewBox="0 0 53 35" fill="none" xmlns="http://www.w3.org/2000/svg">
<path d="M0 18.7757V34.6943L8.2468 34.6522C17.3416 34.5995 17.331 34.5995 19.1754 33.9142C21.4332 33.0708 22.9066 31.4579 23.5532 29.1281C23.7652 28.3901 23.7864 28.0422 23.7864 25.5648C23.797 22.5076 23.744 22.1281 23.055 20.6838C22.6098 19.735 21.8254 18.9443 20.8502 18.4489L20.1612 18.0904L20.6276 17.8163C21.7406 17.1838 22.7264 15.8555 23.1822 14.3901C23.4578 13.4835 23.4578 9.47747 23.1822 8.38108C22.578 5.99855 20.8608 4.21693 18.3698 3.3841C16.854 2.87807 16.271 2.84645 7.8758 2.84645H0V18.7757ZM15.8152 7.45337C17.0978 7.93831 17.8398 8.68681 18.179 9.84645C18.3274 10.3314 18.3486 10.7742 18.3168 11.9022C18.285 13.2199 18.2532 13.3886 17.9882 13.9368C17.4264 15.0648 16.3558 15.7711 14.8188 16.0242C14.4372 16.0769 12.19 16.1296 9.6248 16.1296H5.088V11.6386V7.15819L10.1548 7.18982C15.0308 7.22145 15.2322 7.23199 15.8152 7.45337ZM15.688 20.5151C17.0448 20.8208 18.1472 21.7591 18.5076 22.9293C18.7302 23.6461 18.815 25.7862 18.6772 26.851C18.5288 27.9368 18.2002 28.601 17.49 29.2335C16.8964 29.7711 16.1544 30.0874 15.1368 30.2561C14.7552 30.3088 12.455 30.3615 9.7838 30.3615H5.088V25.354V20.3464H10.0276C14.1192 20.3464 15.0838 20.3781 15.688 20.5151Z" fill="white"/>
<path d="M44.9862 1.39178C44.1806 2.16136 42.6754 3.57401 41.6578 4.53335C40.6402 5.50323 37.8736 8.10714 35.5098 10.3315C33.146 12.5559 30.8352 14.7382 30.3688 15.1809C29.9024 15.6237 28.694 16.7623 27.6976 17.7111L25.8638 19.4294V23.6252V27.8315H28.4078H30.9518V24.7954V21.7487L31.6196 21.1267C31.98 20.7894 33.1354 19.7035 34.1848 18.7126C35.2342 17.7216 37.0998 15.9611 38.3188 14.812C39.5484 13.6629 40.7462 12.5243 40.99 12.2924C41.2444 12.0499 42.6118 10.7638 44.0322 9.43546L46.6186 7.01076L46.6292 3.50022C46.6398 1.58154 46.5974 0.000216246 46.555 0.000216246C46.502 0.000216246 45.8024 0.622204 44.9862 1.39178Z" fill="#5BEBD4"/>
<path d="M41.4459 19.5558V22.6657H38.3189H35.1919L35.2131 25.2169L35.2449 27.7787L38.3401 27.8103L41.4459 27.8314L41.4671 30.9202L41.4989 33.9985H44.0429H46.5869L46.6187 30.9202L46.6399 27.8314L49.7457 27.8103L52.8409 27.7787L52.8727 25.2169L52.8939 22.6657H49.7669H46.6399V19.5558V16.4458H44.0429H41.4459V19.5558Z" fill="#5BEBD4"/>
</svg>
