<svg width="106" height="35" viewBox="0 0 106 35" fill="none" xmlns="http://www.w3.org/2000/svg">
<g clip-path="url(#clip0_2742_7363)">
<mask id="mask0_2742_7363" style="mask-type:luminance" maskUnits="userSpaceOnUse" x="0" y="0" width="106" height="35">
<path d="M106 0H0V35H106V0Z" fill="white"/>
</mask>
<g mask="url(#mask0_2742_7363)">
<path d="M44.9867 1.39156C44.1811 2.16114 42.6759 3.57379 41.6583 4.53313C40.6407 5.50301 37.8741 8.10692 35.5103 10.3313C33.1465 12.5557 30.8357 14.738 30.3693 15.1807C29.9029 15.6235 28.6945 16.7621 27.6981 17.7109L25.8643 19.4292V23.625V27.8313H28.4083H30.9523V24.7952V21.7485L31.6201 21.1265C31.9805 20.7892 33.1359 19.7033 34.1853 18.7124C35.2347 17.7214 37.1003 15.9609 38.3193 14.8118C39.5489 13.6627 40.7467 12.5241 40.9905 12.2922C41.2449 12.0497 42.6123 10.7636 44.0327 9.43524L46.6191 7.01054L46.6297 3.5C46.6403 1.58132 46.5979 0 46.5555 0C46.5025 0 45.8029 0.621988 44.9867 1.39156Z" fill="#5BEBD4"/>
<path d="M41.4464 19.5558V22.6657H38.3194H35.1924L35.2136 25.2169L35.2454 27.7787L38.3406 27.8103L41.4464 27.8314L41.4676 30.9202L41.4994 33.9985H44.0434H46.5874L46.6192 30.9202L46.6404 27.8314L49.7462 27.8103L52.8414 27.7787L52.8732 25.2169L52.8944 22.6657H49.7674H46.6404V19.5558V16.4458H44.0434H41.4464V19.5558Z" fill="#5BEBD4"/>
<path d="M0 18.7759V34.6945L8.2468 34.6524C17.3416 34.5997 17.331 34.5997 19.1754 33.9144C21.4332 33.071 22.9066 31.4581 23.5532 29.1283C23.7652 28.3903 23.7864 28.0424 23.7864 25.565C23.797 22.5078 23.744 22.1283 23.055 20.684C22.6098 19.7352 21.8254 18.9445 20.8502 18.4491L20.1612 18.0906L20.6276 17.8165C21.7406 17.184 22.7264 15.8557 23.1822 14.3903C23.4578 13.4837 23.4578 9.4777 23.1822 8.38131C22.578 5.99878 20.8608 4.21716 18.3698 3.38433C16.854 2.8783 16.271 2.84668 7.8758 2.84668H0V18.7759ZM15.8152 7.4536C17.0978 7.93854 17.8398 8.68704 18.179 9.84668C18.3274 10.3316 18.3486 10.7744 18.3168 11.9024C18.285 13.2201 18.2532 13.3888 17.9882 13.937C17.4264 15.065 16.3558 15.7713 14.8188 16.0244C14.4372 16.0771 12.19 16.1298 9.6248 16.1298H5.088V11.6388V7.15842L10.1548 7.19005C15.0308 7.22168 15.2322 7.23222 15.8152 7.4536ZM15.688 20.5153C17.0448 20.821 18.1472 21.7593 18.5076 22.9295C18.7302 23.6463 18.815 25.7864 18.6772 26.8512C18.5288 27.937 18.2002 28.6012 17.49 29.2337C16.8964 29.7713 16.1544 30.0876 15.1368 30.2563C14.7552 30.309 12.455 30.3617 9.7838 30.3617H5.088V25.3542V20.3466H10.0276C14.1192 20.3466 15.0838 20.3783 15.688 20.5153Z" fill="#0F1B35"/>
<path d="M76.7974 10.0786C73.893 10.4898 72.3242 11.6283 71.5504 13.8633C71.2006 14.8859 71.0946 16.4777 71.1476 20.2624C71.2006 23.4145 71.2218 23.8573 71.4232 24.5952C71.9956 26.6931 73.2464 27.916 75.4724 28.538C76.0766 28.7067 76.596 28.7277 79.7124 28.7277C82.7758 28.7277 83.3588 28.7067 83.9524 28.538C86.1254 27.9582 87.4504 26.672 88.0546 24.5636C88.2242 23.9521 88.2454 23.425 88.2454 19.4506C88.2454 15.55 88.2242 14.9386 88.0546 14.3377C87.5988 12.6615 86.666 11.4702 85.288 10.8061C83.9418 10.163 83.4966 10.0997 80.1364 10.0681C78.4722 10.047 76.9776 10.0576 76.7974 10.0786ZM82.8712 13.4838C83.5284 13.7789 84.0796 14.3693 84.334 15.0651C84.493 15.4762 84.5248 16.0455 84.5672 18.9762C84.6096 22.7925 84.546 23.4672 84.0478 24.3317C83.433 25.3964 82.4578 25.7232 79.8078 25.7232C77.2108 25.7232 76.4264 25.5335 75.6526 24.6795C74.9742 23.9311 74.9106 23.5515 74.8576 19.9039C74.8364 17.8377 74.8576 16.3934 74.9318 15.919C75.1544 14.5274 75.7268 13.7789 76.8822 13.3678C77.3592 13.1991 77.7408 13.178 79.8714 13.1991C82.1822 13.2308 82.3412 13.2413 82.8712 13.4838Z" fill="#0F1B35"/>
<path d="M52.7881 10.3105C52.7881 10.3632 54.2721 14.2427 56.0847 18.934C57.8973 23.6252 59.4767 27.7156 59.5933 28.0108C59.7841 28.5379 59.8159 28.5695 60.1763 28.5695C60.4837 28.5695 60.5367 28.6011 60.4943 28.7593C60.4731 28.8542 59.8901 30.2773 59.2117 31.9114C58.5333 33.556 57.9821 34.9159 57.9821 34.9475C57.9821 34.9792 58.8407 34.9897 59.9007 34.9792L61.8087 34.9475L66.5045 22.824C69.0909 16.1508 71.2321 10.5951 71.2745 10.4581L71.3487 10.2261H69.4513C68.0203 10.2261 67.5327 10.2578 67.4903 10.3526C67.4373 10.4897 62.2751 23.7939 62.1267 24.184C62.0737 24.3105 61.2045 22.2126 59.2965 17.2999L56.5511 10.2261H54.6749C53.6361 10.2261 52.7881 10.2683 52.7881 10.3105Z" fill="#0F1B35"/>
<path d="M89.9088 16.9941C89.9512 23.5619 89.9617 23.7938 90.1843 24.595C90.8097 26.8405 92.2513 28.1477 94.6469 28.6221C95.4101 28.7803 95.9825 28.8014 98.6219 28.7486C101.633 28.6959 102.947 28.58 105.046 28.1899L106 28.0212V19.1236V10.2261H104.198H102.396V17.8059V25.3962L101.792 25.4806C101.453 25.5227 100.011 25.5649 98.5796 25.5649C96.0674 25.5649 95.9614 25.5544 95.4208 25.3119C95.0922 25.1643 94.6893 24.8586 94.4455 24.5845C93.6505 23.6884 93.6612 23.8255 93.6188 16.6252L93.587 10.2261H91.7319H89.877L89.9088 16.9941Z" fill="#0F1B35"/>
</g>
</g>
<defs>
<clipPath id="clip0_2742_7363">
<rect width="106" height="35" fill="white"/>
</clipPath>
</defs>
</svg>
