<svg width="106" height="35" viewBox="0 0 106 35" fill="none" xmlns="http://www.w3.org/2000/svg">
<g clip-path="url(#clip0_2424_6995)">
<path d="M44.9862 1.39178C44.1806 2.16136 42.6754 3.57401 41.6578 4.53335C40.6402 5.50323 37.8736 8.10714 35.5098 10.3315C33.146 12.5559 30.8352 14.7382 30.3688 15.1809C29.9024 15.6237 28.694 16.7623 27.6976 17.7111L25.8638 19.4294V23.6252V27.8315H28.4078H30.9518V24.7954V21.7487L31.6196 21.1267C31.98 20.7894 33.1354 19.7035 34.1848 18.7126C35.2342 17.7216 37.0998 15.9611 38.3188 14.812C39.5484 13.6629 40.7462 12.5243 40.99 12.2924C41.2444 12.0499 42.6118 10.7638 44.0322 9.43546L46.6186 7.01076L46.6292 3.50022C46.6398 1.58154 46.5974 0.000216246 46.555 0.000216246C46.502 0.000216246 45.8024 0.622204 44.9862 1.39178Z" fill="#5BEBD4"/>
<path d="M41.4459 19.5558V22.6657H38.3189H35.1919L35.2131 25.2169L35.2449 27.7787L38.3401 27.8103L41.4459 27.8314L41.4671 30.9202L41.4989 33.9985H44.0429H46.5869L46.6187 30.9202L46.6399 27.8314L49.7457 27.8103L52.8409 27.7787L52.8727 25.2169L52.8939 22.6657H49.7669H46.6399V19.5558V16.4458H44.0429H41.4459V19.5558Z" fill="#5BEBD4"/>
<path d="M0 18.7757V34.6943L8.2468 34.6522C17.3416 34.5995 17.331 34.5995 19.1754 33.9142C21.4332 33.0708 22.9066 31.4579 23.5532 29.1281C23.7652 28.3901 23.7864 28.0422 23.7864 25.5648C23.797 22.5076 23.744 22.1281 23.055 20.6838C22.6098 19.735 21.8254 18.9443 20.8502 18.4489L20.1612 18.0904L20.6276 17.8163C21.7406 17.1838 22.7264 15.8555 23.1822 14.3901C23.4578 13.4835 23.4578 9.47747 23.1822 8.38108C22.578 5.99855 20.8608 4.21693 18.3698 3.3841C16.854 2.87807 16.271 2.84645 7.8758 2.84645H0V18.7757ZM15.8152 7.45337C17.0978 7.93831 17.8398 8.68681 18.179 9.84645C18.3274 10.3314 18.3486 10.7742 18.3168 11.9022C18.285 13.2199 18.2532 13.3886 17.9882 13.9368C17.4264 15.0648 16.3558 15.7711 14.8188 16.0242C14.4372 16.0769 12.19 16.1296 9.6248 16.1296H5.088V11.6386V7.15819L10.1548 7.18982C15.0308 7.22145 15.2322 7.23199 15.8152 7.45337ZM15.688 20.5151C17.0448 20.8208 18.1472 21.7591 18.5076 22.9293C18.7302 23.6461 18.815 25.7862 18.6772 26.851C18.5288 27.9368 18.2002 28.601 17.49 29.2335C16.8964 29.7711 16.1544 30.0874 15.1368 30.2561C14.7552 30.3088 12.455 30.3615 9.7838 30.3615H5.088V25.354V20.3464H10.0276C14.1192 20.3464 15.0838 20.3781 15.688 20.5151Z" fill="white"/>
<path d="M76.797 10.0784C73.8926 10.4896 72.3238 11.6281 71.55 13.8631C71.2002 14.8857 71.0942 16.4775 71.1472 20.2622C71.2002 23.4143 71.2214 23.8571 71.4228 24.595C71.9952 26.6929 73.246 27.9158 75.472 28.5378C76.0762 28.7065 76.5956 28.7275 79.712 28.7275C82.7754 28.7275 83.3584 28.7065 83.952 28.5378C86.125 27.958 87.45 26.6718 88.0542 24.5634C88.2238 23.9519 88.245 23.4248 88.245 19.4504C88.245 15.5498 88.2238 14.9384 88.0542 14.3375C87.5984 12.6613 86.6656 11.47 85.2876 10.8059C83.9414 10.1628 83.4962 10.0995 80.136 10.0679C78.4718 10.0468 76.9772 10.0574 76.797 10.0784ZM82.8708 13.4836C83.528 13.7787 84.0792 14.3691 84.3336 15.0649C84.4926 15.476 84.5244 16.0453 84.5668 18.976C84.6092 22.7923 84.5456 23.467 84.0474 24.3315C83.4326 25.3962 82.4574 25.723 79.8074 25.723C77.2104 25.723 76.426 25.5333 75.6522 24.6793C74.9738 23.9309 74.9102 23.5513 74.8572 19.9037C74.836 17.8375 74.8572 16.3932 74.9314 15.9188C75.154 14.5272 75.7264 13.7787 76.8818 13.3676C77.3588 13.1989 77.7404 13.1778 79.871 13.1989C82.1818 13.2306 82.3408 13.2411 82.8708 13.4836Z" fill="white"/>
<path d="M52.7881 10.3103C52.7881 10.363 54.2721 14.2425 56.0847 18.9338C57.8973 23.625 59.4767 27.7154 59.5933 28.0106C59.7841 28.5377 59.8159 28.5693 60.1763 28.5693C60.4837 28.5693 60.5367 28.6009 60.4943 28.7591C60.4731 28.854 59.8901 30.2771 59.2117 31.9112C58.5333 33.5558 57.9821 34.9157 57.9821 34.9473C57.9821 34.979 58.8407 34.9895 59.9007 34.979L61.8087 34.9473L66.5045 22.8238C69.0909 16.1506 71.2321 10.5949 71.2745 10.4579L71.3487 10.2259H69.4513C68.0203 10.2259 67.5327 10.2576 67.4903 10.3524C67.4373 10.4895 62.2751 23.7937 62.1267 24.1838C62.0737 24.3103 61.2045 22.2124 59.2965 17.2997L56.5511 10.2259H54.6749C53.6361 10.2259 52.7881 10.2681 52.7881 10.3103Z" fill="white"/>
<path d="M89.9092 16.994C89.9516 23.5618 89.9622 23.7937 90.1848 24.5949C90.8102 26.8404 92.2518 28.1476 94.6474 28.622C95.4106 28.7802 95.983 28.8013 98.6224 28.7485C101.633 28.6958 102.947 28.5799 105.046 28.1898L106 28.0211V19.1235V10.226H104.198H102.396V17.8058V25.3961L101.792 25.4805C101.453 25.5226 100.011 25.5648 98.58 25.5648C96.0678 25.5648 95.9618 25.5543 95.4212 25.3118C95.0926 25.1642 94.6898 24.8585 94.446 24.5844C93.651 23.6883 93.6616 23.8254 93.6192 16.6251L93.5874 10.226H91.7324H89.8774L89.9092 16.994Z" fill="white"/>
</g>
<defs>
<clipPath id="clip0_2424_6995">
<rect width="106" height="35" fill="white"/>
</clipPath>
</defs>
</svg>
