<svg width="20" height="17" viewBox="0 0 20 17" fill="none" xmlns="http://www.w3.org/2000/svg">
<path d="M9.9999 13C7.6296 13 5.71085 11.1653 5.53429 8.84031L2.25618 6.30688C1.82524 6.84751 1.42868 7.41907 1.10868 8.04406C1.03719 8.18547 0.999946 8.34171 0.999946 8.50016C0.999946 8.65861 1.03719 8.81484 1.10868 8.95625C2.80336 12.2628 6.15835 14.5 9.9999 14.5C10.8408 14.5 11.6521 14.375 12.434 14.1731L10.8124 12.9184C10.5446 12.9702 10.2726 12.9975 9.9999 13ZM19.8067 14.8156L16.3521 12.1456C17.4015 11.2612 18.2646 10.177 18.8911 8.95594C18.9626 8.81453 18.9999 8.65829 18.9999 8.49984C18.9999 8.34139 18.9626 8.18516 18.8911 8.04375C17.1964 4.7372 13.8415 2.50002 9.9999 2.50002C8.391 2.50197 6.80823 2.90701 5.39617 3.67814L1.42055 0.605337C1.36871 0.564996 1.30943 0.535265 1.24609 0.517845C1.18275 0.500425 1.1166 0.495656 1.05142 0.503811C0.98624 0.511966 0.923305 0.532884 0.866212 0.565372C0.809118 0.59786 0.758986 0.641279 0.71868 0.693149L0.105245 1.48283C0.0238694 1.58752 -0.0125943 1.72023 0.00387315 1.8518C0.0203406 1.98336 0.0883907 2.103 0.193057 2.18439L18.5793 16.3947C18.6311 16.435 18.6904 16.4647 18.7537 16.4822C18.8171 16.4996 18.8832 16.5043 18.9484 16.4962C19.0136 16.488 19.0765 16.4671 19.1336 16.4346C19.1907 16.4021 19.2408 16.3587 19.2811 16.3069L19.8949 15.5172C19.9762 15.4124 20.0126 15.2797 19.9961 15.1481C19.9796 15.0166 19.9115 14.897 19.8067 14.8156ZM14.0655 10.3781L12.8374 9.42875C12.9408 9.12983 12.9957 8.81627 12.9999 8.5C13.006 8.03696 12.9034 7.57894 12.7004 7.16274C12.4974 6.74653 12.1996 6.38374 11.8309 6.10351C11.4622 5.82328 11.033 5.63342 10.5776 5.54918C10.1223 5.46493 9.65349 5.48866 9.20897 5.61845C9.39741 5.87379 9.49934 6.18266 9.4999 6.50001C9.49524 6.60561 9.4791 6.71039 9.45178 6.81251L7.15147 5.0347C7.95053 4.36695 8.95857 4.00078 9.9999 4.00001C10.5909 3.99969 11.1762 4.11586 11.7224 4.34189C12.2685 4.56791 12.7647 4.89937 13.1826 5.3173C13.6005 5.73522 13.932 6.23143 14.158 6.77754C14.384 7.32365 14.5002 7.90896 14.4999 8.5C14.4999 9.17594 14.3346 9.80593 14.0655 10.3784V10.3781Z" fill="#7E7E81"/>
</svg>
