<svg width="7" height="11" viewBox="0 0 7 11" fill="none" xmlns="http://www.w3.org/2000/svg">
<path fill-rule="evenodd" clip-rule="evenodd" d="M1.125 2.25C1.27274 2.25 1.41903 2.2209 1.55552 2.16436C1.69201 2.10783 1.81603 2.02496 1.9205 1.9205C2.02496 1.81603 2.10783 1.69201 2.16436 1.55552C2.2209 1.41903 2.25 1.27274 2.25 1.125C2.25 0.977263 2.2209 0.830972 2.16436 0.694481C2.10783 0.55799 2.02496 0.433971 1.9205 0.329505C1.81603 0.225039 1.69201 0.142172 1.55552 0.0856354C1.41903 0.0290989 1.27274 -3.11333e-09 1.125 0C0.826631 6.28765e-09 0.540483 0.118527 0.329505 0.329505C0.118527 0.540483 0 0.826631 0 1.125C0 1.42337 0.118527 1.70952 0.329505 1.9205C0.540483 2.13147 0.826631 2.25 1.125 2.25V2.25ZM5.125 2.25C5.27274 2.25 5.41903 2.2209 5.55552 2.16436C5.69201 2.10783 5.81603 2.02496 5.9205 1.9205C6.02496 1.81603 6.10783 1.69201 6.16436 1.55552C6.2209 1.41903 6.25 1.27274 6.25 1.125C6.25 0.977263 6.2209 0.830972 6.16436 0.694481C6.10783 0.55799 6.02496 0.433971 5.9205 0.329505C5.81603 0.225039 5.69201 0.142172 5.55552 0.0856354C5.41903 0.0290989 5.27274 -3.11333e-09 5.125 0C4.82663 6.28765e-09 4.54048 0.118527 4.3295 0.329505C4.11853 0.540483 4 0.826631 4 1.125C4 1.42337 4.11853 1.70952 4.3295 1.9205C4.54048 2.13147 4.82663 2.25 5.125 2.25ZM6.25 5.125C6.25 5.42337 6.13147 5.70952 5.9205 5.9205C5.70952 6.13147 5.42337 6.25 5.125 6.25C4.82663 6.25 4.54048 6.13147 4.3295 5.9205C4.11853 5.70952 4 5.42337 4 5.125C4 4.82663 4.11853 4.54048 4.3295 4.3295C4.54048 4.11853 4.82663 4 5.125 4C5.42337 4 5.70952 4.11853 5.9205 4.3295C6.13147 4.54048 6.25 4.82663 6.25 5.125V5.125ZM1.125 6.25C1.42337 6.25 1.70952 6.13147 1.9205 5.9205C2.13147 5.70952 2.25 5.42337 2.25 5.125C2.25 4.82663 2.13147 4.54048 1.9205 4.3295C1.70952 4.11853 1.42337 4 1.125 4C0.826631 4 0.540483 4.11853 0.329505 4.3295C0.118527 4.54048 0 4.82663 0 5.125C0 5.42337 0.118527 5.70952 0.329505 5.9205C0.540483 6.13147 0.826631 6.25 1.125 6.25V6.25ZM6.25 9.125C6.25 9.42337 6.13147 9.70952 5.9205 9.9205C5.70952 10.1315 5.42337 10.25 5.125 10.25C4.82663 10.25 4.54048 10.1315 4.3295 9.9205C4.11853 9.70952 4 9.42337 4 9.125C4 8.82663 4.11853 8.54048 4.3295 8.3295C4.54048 8.11853 4.82663 8 5.125 8C5.42337 8 5.70952 8.11853 5.9205 8.3295C6.13147 8.54048 6.25 8.82663 6.25 9.125V9.125ZM1.125 10.25C1.42337 10.25 1.70952 10.1315 1.9205 9.9205C2.13147 9.70952 2.25 9.42337 2.25 9.125C2.25 8.82663 2.13147 8.54048 1.9205 8.3295C1.70952 8.11853 1.42337 8 1.125 8C0.826631 8 0.540483 8.11853 0.329505 8.3295C0.118527 8.54048 0 8.82663 0 9.125C0 9.42337 0.118527 9.70952 0.329505 9.9205C0.540483 10.1315 0.826631 10.25 1.125 10.25V10.25Z" fill="black"/>
</svg>
