<svg width="15" height="15" viewBox="0 0 15 15" fill="none" xmlns="http://www.w3.org/2000/svg">
<path d="M4.53025 13.7803L11.5 6.8105L8.1895 3.5L1.21975 10.4698C1.1238 10.5658 1.05564 10.6861 1.0225 10.8178L0.25 14.75L4.1815 13.9775C4.3135 13.9445 4.43425 13.8763 4.53025 13.7803V13.7803ZM13.75 4.5605C14.0312 4.27921 14.1892 3.89775 14.1892 3.5C14.1892 3.10226 14.0312 2.72079 13.75 2.4395L12.5605 1.25C12.2792 0.968795 11.8977 0.810822 11.5 0.810822C11.1023 0.810822 10.7208 0.968795 10.4395 1.25L9.25 2.4395L12.5605 5.75L13.75 4.5605Z" fill="#7E7E81"/>
</svg>
